<svg width="156" height="156" viewBox="0 0 156 156" fill="none" xmlns="http://www.w3.org/2000/svg">
<circle cx="78" cy="78" r="78" fill="#EFF9FB"/>
<path opacity="0.1" d="M56.4151 75.4073H118.234C122.122 75.4073 125.274 78.5589 125.274 82.4467V116.267C125.274 120.155 122.122 123.306 118.234 123.306H57.5105C51.6789 123.306 46.9514 118.579 46.9514 112.747L46.9512 65.9434C46.9512 71.1701 51.1883 75.4073 56.4151 75.4073Z" fill="#72949B"/>
<path d="M51.4151 86.5504H97.7931C101.681 86.5504 104.833 83.3987 104.833 79.5109V57.4232C104.833 53.5354 101.681 50.3838 97.7931 50.3838H52.5105C46.6789 50.3838 41.9514 55.1113 41.9514 60.9429L41.9512 96.0143C41.9512 90.7875 46.1883 86.5504 51.4151 86.5504Z" fill="#E7F1F3"/>
<path d="M52.1846 59.2871H72.6802" stroke="#004C84" stroke-width="2" stroke-linecap="round" stroke-linejoin="round"/>
<path opacity="0.4" d="M52.1846 64.8232H64.4618" stroke="#004C84" stroke-width="2" stroke-linecap="round" stroke-linejoin="round"/>
<path opacity="0.4" d="M79.3276 59.2871H87.6364" stroke="#004C84" stroke-width="2" stroke-linecap="round" stroke-linejoin="round"/>
<path d="M70.3535 50.3838H52.5105C46.6789 50.3838 41.9514 55.1113 41.9514 60.9429L41.9512 96.0143C41.9512 90.7875 46.1883 86.5504 51.4151 86.5504H97.7931C101.681 86.5504 104.833 83.3987 104.833 79.5109V57.4232C104.833 53.5354 101.681 50.3838 97.7931 50.3838H82.2766" stroke="#004C84" stroke-width="2" stroke-linecap="round"/>
<path d="M51.4151 70.4073H113.234C117.122 70.4073 120.274 73.5589 120.274 77.4467V111.267C120.274 115.155 117.122 118.306 113.234 118.306H52.5105C46.6789 118.306 41.9514 113.579 41.9514 107.747L41.9512 60.9434C41.9512 66.1701 46.1883 70.4073 51.4151 70.4073Z" fill="#D5E0E2"/>
<path d="M100.031 95.1254C100.031 89.8914 104.274 85.6484 109.508 85.6484H120.274V104.602H109.508C104.274 104.602 100.031 100.359 100.031 95.1254Z" fill="#E7F1F3"/>
<path d="M120.274 85.5642V77.4467C120.274 73.5589 117.122 70.4073 113.234 70.4073H51.4151C46.1883 70.4073 41.9512 66.1701 41.9512 60.9434L41.9514 107.747C41.9514 113.579 46.6789 118.306 52.5105 118.306H113.234C117.122 118.306 120.274 115.155 120.274 111.267V105.298M120.274 96.8666V98.4477" stroke="#004C84" stroke-width="2" stroke-linecap="round" stroke-linejoin="round"/>
<circle cx="107.553" cy="95.4585" r="2.59913" fill="#004C84"/>
<circle cx="96.4957" cy="44.9957" r="17.4225" fill="#D7F1F5" stroke="#36A7BD" stroke-width="2" stroke-linecap="round" stroke-linejoin="round"/>
<path d="M91.8726 44.6948L96.4461 36.4424L101.119 44.6948L96.4461 47.2797L91.8726 44.6948Z" fill="#D7F1F5" stroke="#36A7BD" stroke-width="2" stroke-linecap="round" stroke-linejoin="round"/>
<path opacity="0.4" d="M91.8726 48.3213L96.4461 54.2869L101.119 48.3213L96.4461 50.9063L91.8726 48.3213Z" fill="#D7F1F5" stroke="#36A7BD" stroke-width="2" stroke-linecap="round" stroke-linejoin="round"/>
<path d="M48.6872 38.9206C51.6202 40.6139 55.3705 39.609 57.0639 36.6761C58.0742 34.9261 58.124 32.8852 57.3768 31.1638M54.8193 28.2995C51.8864 26.6061 48.1361 27.611 46.4427 30.544C45.4604 32.2454 45.3861 34.2219 46.0695 35.9124" stroke="#72949B" stroke-width="2" stroke-linecap="round" stroke-linejoin="round"/>
<circle cx="59.1453" cy="27.5432" r="1.41141" fill="#72949B"/>
<circle cx="44.7879" cy="39.5638" r="1.41141" fill="#72949B"/>
<path d="M122.973 62.6719C125.031 63.8599 127.662 63.1549 128.85 61.0972C129.559 59.8695 129.594 58.4376 129.069 57.23M127.275 55.2204C125.217 54.0324 122.586 54.7374 121.398 56.7951C120.709 57.9888 120.657 59.3755 121.136 60.5614" stroke="#72949B" stroke-width="2" stroke-linecap="round" stroke-linejoin="round"/>
<circle cx="130.31" cy="54.6894" r="0.990214" fill="#72949B"/>
<circle cx="120.237" cy="63.124" r="0.990214" fill="#72949B"/>
<path opacity="0.4" d="M32.0853 96.0143C33.5168 96.0143 34.6774 94.8537 34.6774 93.4222C34.6774 91.9906 33.5168 90.8301 32.0853 90.8301C30.6537 90.8301 29.4932 91.9906 29.4932 93.4222" stroke="#72949B" stroke-width="2" stroke-linecap="round" stroke-linejoin="round"/>
<path opacity="0.4" d="M22.4111 59.2861H29.493" stroke="#72949B" stroke-width="2" stroke-linecap="round" stroke-linejoin="round"/>
<circle opacity="0.4" cx="92.7015" cy="133.57" r="3.79423" stroke="#72949B" stroke-width="2" stroke-linecap="round" stroke-linejoin="round"/>
</svg>
