<svg width="154" height="35" viewBox="0 0 154 35" fill="none" xmlns="http://www.w3.org/2000/svg">
<g clip-path="url(#clip0)">
<path fill-rule="evenodd" clip-rule="evenodd" d="M94.1406 5.3704C97.326 2.06045 101.799 0 106.75 0C113.027 0 118.535 3.3117 121.625 8.28205C124.712 3.31205 130.225 0 136.5 0C146.122 0 153.941 7.7805 154 17.3869V35H148.75V17.5C148.75 10.739 143.262 5.25 136.5 5.25C129.738 5.25 124.25 10.739 124.25 17.5V35H119V17.5C119 10.739 113.511 5.25 106.75 5.25C102.634 5.25 98.9899 7.28455 96.7684 10.4013C96.1195 8.59704 95.2309 6.90725 94.1406 5.3704Z" fill="#49546A"/>
<path fill-rule="evenodd" clip-rule="evenodd" d="M34.6406 5.3704C37.826 2.06045 42.2993 0 47.2504 0C53.527 0 59.0363 3.3117 62.1254 8.28205C65.2138 3.31205 70.7235 0 77.0004 0C86.6212 0 94.4392 7.7805 94.5001 17.3869L94.5004 17.5V35H89.2504V17.5C89.2504 10.739 83.7614 5.25 77.0004 5.25C70.2395 5.25 64.7504 10.739 64.7504 17.5V35H59.5004V17.5C59.5004 10.739 54.0114 5.25 47.2504 5.25C43.1344 5.25 39.4899 7.28455 37.2684 10.4013C36.6195 8.59704 35.7309 6.90725 34.6406 5.3704Z" fill="#49546A"/>
<path fill-rule="evenodd" clip-rule="evenodd" d="M17.5 0C27.16 0 35 7.8414 35 17.5C35 27.16 27.16 35 17.5 35C7.84 35 0 27.16 0 17.5C0 7.8414 7.84 0 17.5 0ZM17.5 5.25C24.262 5.25 29.75 10.739 29.75 17.5C29.75 24.261 24.262 29.75 17.5 29.75C10.738 29.75 5.25 24.261 5.25 17.5C5.25 10.739 10.738 5.25 17.5 5.25Z" fill="#49546A"/>
</g>
<defs>
<clipPath id="clip0">
<rect width="154" height="35" fill="white"/>
</clipPath>
</defs>
</svg>
