<svg width="156" height="156" viewBox="0 0 156 156" fill="none" xmlns="http://www.w3.org/2000/svg">
<circle cx="78" cy="78" r="78" fill="#EAF9FB"/>
<path d="M65.3793 124.101C66.5828 125.261 66.6181 127.177 65.4583 128.38C64.2984 129.584 62.3826 129.619 61.1791 128.459C59.9756 127.3 59.9402 125.384 61.1001 124.18" stroke="#72949B" stroke-width="2" stroke-linecap="round" stroke-linejoin="round"/>
<path d="M82.1639 30.1144C83.3594 28.9463 85.2754 28.9684 86.4435 30.1639C87.6116 31.3593 87.5895 33.2754 86.394 34.4435C85.1986 35.6116 83.2825 35.5895 82.1144 34.394" stroke="#CEE7F0" stroke-width="2" stroke-linecap="round" stroke-linejoin="round"/>
<path d="M105.607 79.753V50.4937L75.6372 42L45.667 50.4937V79.7531C45.667 97.0001 56.2488 112.48 72.3188 118.743L75.6372 120.036L78.9557 118.743C95.0257 112.48 105.607 97.0001 105.607 79.753Z" fill="#D5E0E2"/>
<path d="M56.4111 43.1309H75.1645" stroke="#CEE7F0" stroke-width="2.2619" stroke-linecap="round" stroke-linejoin="round"/>
<path opacity="0.4" d="M38.3154 56.7031H57.0688" stroke="#97D3DF" stroke-width="2.2619" stroke-linecap="round" stroke-linejoin="round"/>
<path opacity="0.4" d="M36 69.1426H50.8491" stroke="#97D3DF" stroke-width="2.2619" stroke-linecap="round" stroke-linejoin="round"/>
<path opacity="0.4" d="M38.8809 80.4531H57.6342" stroke="#97D3DF" stroke-width="2.2619" stroke-linecap="round" stroke-linejoin="round"/>
<path opacity="0.4" d="M41 91.7617H64.4203" stroke="#97D3DF" stroke-width="2.2619" stroke-linecap="round" stroke-linejoin="round"/>
<path opacity="0.4" d="M48.5 103.072H71.2055" stroke="#97D3DF" stroke-width="2.2619" stroke-linecap="round" stroke-linejoin="round"/>
<path opacity="0.4" d="M59.2383 114.381H77.9916" stroke="#97D3DF" stroke-width="2.2619" stroke-linecap="round" stroke-linejoin="round"/>
<path d="M37.75 43.1309H45.1938" stroke="#CEE7F0" stroke-width="2.2619" stroke-linecap="round" stroke-linejoin="round"/>
<path opacity="0.4" d="M19.6543 56.7031H27.0981" stroke="#97D3DF" stroke-width="2.2619" stroke-linecap="round" stroke-linejoin="round"/>
<path opacity="0.4" d="M14 69.1426H27" stroke="#97D3DF" stroke-width="2.2619" stroke-linecap="round" stroke-linejoin="round"/>
<path opacity="0.4" d="M20.7861 80.4531H28.23" stroke="#97D3DF" stroke-width="2.2619" stroke-linecap="round" stroke-linejoin="round"/>
<path opacity="0.4" d="M23.5 91.7617H35.0151" stroke="#97D3DF" stroke-width="2.2619" stroke-linecap="round" stroke-linejoin="round"/>
<path opacity="0.4" d="M34.3574 103.072H41.8013" stroke="#97D3DF" stroke-width="2.2619" stroke-linecap="round" stroke-linejoin="round"/>
<path opacity="0.4" d="M46 115H53.4438" stroke="#97D3DF" stroke-width="2.2619" stroke-linecap="round" stroke-linejoin="round"/>
<path d="M109 76.5409V50.0952L80.1606 42L51.3213 50.0952V76.5409C51.3213 93.8374 61.9628 109.351 78.0991 115.579L80.1606 116.375L82.2221 115.579C98.3583 109.351 109 93.8374 109 76.5409Z" fill="#E7F1F3"/>
<path d="M96.8567 76.462V62.8153L80.1603 58.1895L63.4639 62.8153V76.462C63.4639 87.2197 70.1074 96.8598 80.1603 100.689C90.2132 96.8598 96.8567 87.2197 96.8567 76.462Z" fill="#D7F1F5"/>
<path d="M96.8567 76.462V62.8153L80.1603 58.1895L63.4639 62.8153V76.462C63.4639 87.2197 70.1074 96.8598 80.1603 100.689C90.2132 96.8598 96.8567 87.2197 96.8567 76.462Z" stroke="#36A7BD" stroke-width="2.2619"/>
<path d="M109 62.5078V65.5435" stroke="#004C84" stroke-width="2.2619" stroke-linecap="round" stroke-linejoin="round"/>
<path d="M109 72.121V76.541C109 93.8374 98.3583 109.351 82.2221 115.579L80.1606 116.375L78.0991 115.579C61.9629 109.351 51.3213 93.8374 51.3213 76.5409V50.0952L74.9646 43.4585C78.3629 42.5046 81.9582 42.5046 85.3566 43.4585L109 50.0952V56.1667" stroke="#004C84" stroke-width="2.2619" stroke-linecap="round" stroke-linejoin="round"/>
<path opacity="0.4" d="M81.6512 70.125L77.333 77.7863H84.1187L80.4174 85.9583" stroke="#36A7BD" stroke-width="2.2619" stroke-linecap="round" stroke-linejoin="round"/>
</svg>
