<svg width="156" height="156" viewBox="0 0 156 156" fill="none" xmlns="http://www.w3.org/2000/svg">
<path d="M133.154 133.154C102.693 163.615 53.3066 163.615 22.8457 133.154C-7.61522 102.693 -7.61522 53.3066 22.8457 22.8457C53.3066 -7.61522 102.693 -7.61522 133.154 22.8457C163.615 53.3066 163.615 102.693 133.154 133.154Z" fill="#EFF9FB"/>
<path d="M118.379 98.1003C119.583 99.2602 119.618 101.176 118.458 102.38C117.298 103.583 115.383 103.618 114.179 102.458C112.976 101.299 112.94 99.3828 114.1 98.1793" stroke="#D5E0E2" stroke-width="2" stroke-linecap="round" stroke-linejoin="round"/>
<path d="M104.141 46.238C105.344 47.3979 105.38 49.3137 104.22 50.5172C103.06 51.7207 101.144 51.756 99.9408 50.5962C98.7373 49.4363 98.702 47.5205 99.8618 46.317" stroke="#D5E0E2" stroke-width="2" stroke-linecap="round" stroke-linejoin="round"/>
<path d="M50.4231 118.167C50.4231 116.745 51.5753 115.593 52.9967 115.593C54.4181 115.593 55.5703 116.745 55.5703 118.167C55.5703 119.588 54.4181 120.74 52.9967 120.74" stroke="#A4DBE5" stroke-width="2" stroke-linecap="round" stroke-linejoin="round"/>
<path opacity="0.4" d="M74 46H81.0819" stroke="#D5E0E2" stroke-width="2" stroke-linecap="round" stroke-linejoin="round"/>
<circle cx="78.6468" cy="125.803" r="11.4431" transform="rotate(90 78.6468 125.803)" fill="#D5E0E2"/>
<circle cx="78.6467" cy="125.804" r="7.0838" transform="rotate(90 78.6467 125.804)" fill="#E7F1F3"/>
<path d="M70.5763 117.606C71.4712 116.759 72.4868 116.074 73.5769 115.563C76.85 114.03 80.7951 114.068 84.1627 116.012C89.6358 119.172 91.511 126.17 88.3511 131.643C85.1912 137.117 78.1928 138.992 72.7196 135.832C69.695 134.086 67.7692 131.167 67.1847 127.982C67.0234 127.102 66.9643 126.202 67.0125 125.301" stroke="#004C84" stroke-width="2" stroke-linecap="round" stroke-linejoin="round"/>
<path d="M68.3818 120.607C68.3108 120.775 68.1263 121.209 67.9559 121.611" stroke="#72949B" stroke-width="2" stroke-linecap="round" stroke-linejoin="round"/>
<circle cx="128.248" cy="76.4099" r="11.4431" transform="rotate(90 128.248 76.4099)" fill="#D5E0E2"/>
<circle cx="128.248" cy="76.41" r="7.0838" transform="rotate(90 128.248 76.41)" fill="#E7F1F3"/>
<path d="M120.178 68.2123C121.073 67.3653 122.088 66.6803 123.178 66.1695C126.452 64.6361 130.397 64.6741 133.764 66.6184C139.237 69.7783 141.113 76.7768 137.953 82.2499C134.793 87.723 127.794 89.5982 122.321 86.4383C119.297 84.6921 117.371 81.7735 116.786 78.588C116.625 77.7085 116.566 76.8086 116.614 75.9075" stroke="#004C84" stroke-width="2" stroke-linecap="round" stroke-linejoin="round"/>
<path d="M117.983 71.2139C117.912 71.3811 117.728 71.8157 117.557 72.217" stroke="#004C84" stroke-width="2" stroke-linecap="round" stroke-linejoin="round"/>
<circle cx="77.8239" cy="26.3376" r="11.4431" fill="#D5E0E2"/>
<circle cx="77.824" cy="26.3377" r="7.0838" fill="#E7F1F3"/>
<path d="M69.6264 34.4081C68.7794 33.5132 68.0943 32.4976 67.5836 31.4075C66.0501 28.1344 66.0881 24.1893 68.0324 20.8217C71.1924 15.3486 78.1908 13.4733 83.6639 16.6332C89.1371 19.7932 91.0123 26.7916 87.8524 32.2648C86.1061 35.2894 83.1876 37.2152 80.0021 37.7996C79.1225 37.961 78.2227 38.0201 77.3215 37.9719" stroke="#004C84" stroke-width="2" stroke-linecap="round" stroke-linejoin="round"/>
<path d="M72.6279 36.6025C72.7951 36.6735 73.2298 36.8581 73.6311 37.0285" stroke="#004C84" stroke-width="2" stroke-linecap="round" stroke-linejoin="round"/>
<circle cx="28.2224" cy="75.8171" r="11.4431" fill="#D5E0E2"/>
<circle cx="28.2225" cy="75.8172" r="7.0838" fill="#E7F1F3"/>
<path d="M20.0248 83.8876C19.1778 82.9927 18.4928 81.9771 17.982 80.887C16.4486 77.6139 16.4866 73.6688 18.4309 70.3012C21.5908 64.8281 28.5893 62.9528 34.0624 66.1127C39.5355 69.2727 41.4107 76.2711 38.2508 81.7442C36.5046 84.7688 33.586 86.6947 30.4005 87.2791C29.521 87.4405 28.6211 87.4996 27.72 87.4514" stroke="#004C84" stroke-width="2" stroke-linecap="round" stroke-linejoin="round"/>
<path d="M23.0264 86.082C23.1936 86.153 23.6282 86.3376 24.0295 86.508" stroke="#004C84" stroke-width="2" stroke-linecap="round" stroke-linejoin="round"/>
<circle cx="78" cy="78.7071" r="26.5" transform="rotate(45 78 78.7071)" fill="#D7F1F5"/>
<circle cx="78" cy="78.7071" r="13.5" transform="rotate(45 78 78.7071)" fill="#EEFDFF"/>
<circle opacity="0.4" cx="78" cy="78.0824" r="4.05851" transform="rotate(45 78 78.0824)" stroke="#36A7BD" stroke-width="2" stroke-linecap="round" stroke-linejoin="round"/>
<path d="M59.2617 59.9688C57.0275 62.203 55.2756 64.7369 54.0061 67.4411C49.3951 77.2628 51.147 89.3308 59.2617 97.4455C69.6106 107.794 86.3894 107.794 96.7383 97.4455C107.087 87.0966 107.087 70.3177 96.7383 59.9688C91.6587 54.8891 85.0298 52.3028 78.3727 52.2097" stroke="#36A7BD" stroke-width="2" stroke-linecap="round" stroke-linejoin="round"/>
<path d="M68.0944 53.9523L65.7863 55.339" stroke="#36A7BD" stroke-width="2" stroke-linecap="round" stroke-linejoin="round"/>
</svg>
