<svg width="461" height="437" viewBox="0 0 461 437" fill="none" xmlns="http://www.w3.org/2000/svg">
<line x1="209.153" y1="130.812" x2="284.872" y2="154.311" stroke="#CADEF1" stroke-width="4" stroke-linecap="round" stroke-linejoin="round" stroke-dasharray="1 10"/>
<line x1="332.85" y1="235.067" x2="279.419" y2="289.802" stroke="#CADEF1" stroke-width="4" stroke-linecap="round" stroke-linejoin="round" stroke-dasharray="1 10"/>
<line x1="137.83" y1="213.009" x2="157.251" y2="277.746" stroke="#CADEF1" stroke-width="4" stroke-linecap="round" stroke-linejoin="round" stroke-dasharray="1 10"/>
<ellipse opacity="0.55" cx="123.683" cy="126.643" rx="123.683" ry="126.604" fill="#EAF9FB"/>
<ellipse cx="123.683" cy="126.643" rx="87.0817" ry="89.1388" fill="#118997"/>
<path d="M102.291 158.177C102.291 159.183 101.944 160.021 101.25 160.692C100.568 161.351 99.5209 161.681 98.1101 161.681H95.7856V166.729H94.2071V154.638H98.1101C99.4747 154.638 100.51 154.968 101.215 155.627C101.932 156.286 102.291 157.136 102.291 158.177ZM98.1101 160.38C98.989 160.38 99.6366 160.189 100.053 159.807C100.469 159.426 100.677 158.882 100.677 158.177C100.677 156.685 99.8216 155.939 98.1101 155.939H95.7856V160.38H98.1101ZM110.844 159.703V161.039H103.923V159.703H110.844ZM120.173 166.729L117.293 161.785H115.385V166.729H113.807V154.638H117.71C118.623 154.638 119.392 154.794 120.017 155.106C120.653 155.419 121.127 155.841 121.439 156.373C121.751 156.905 121.908 157.512 121.908 158.194C121.908 159.027 121.665 159.761 121.179 160.397C120.705 161.033 119.988 161.455 119.028 161.663L122.064 166.729H120.173ZM115.385 160.518H117.71C118.565 160.518 119.207 160.31 119.635 159.894C120.063 159.466 120.277 158.899 120.277 158.194C120.277 157.477 120.063 156.922 119.635 156.529C119.219 156.136 118.577 155.939 117.71 155.939H115.385V160.518ZM133.034 161.611C133.034 161.912 133.016 162.23 132.982 162.565H125.384C125.442 163.502 125.76 164.236 126.338 164.768C126.928 165.289 127.639 165.549 128.471 165.549C129.154 165.549 129.72 165.393 130.171 165.081C130.634 164.757 130.958 164.329 131.143 163.797H132.843C132.588 164.711 132.08 165.456 131.316 166.035C130.553 166.601 129.605 166.885 128.471 166.885C127.569 166.885 126.76 166.682 126.043 166.278C125.338 165.873 124.782 165.3 124.378 164.56C123.973 163.809 123.771 162.941 123.771 161.958C123.771 160.975 123.967 160.114 124.36 159.374C124.754 158.633 125.303 158.067 126.008 157.674C126.725 157.269 127.546 157.066 128.471 157.066C129.373 157.066 130.171 157.263 130.865 157.656C131.559 158.049 132.091 158.593 132.461 159.287C132.843 159.969 133.034 160.744 133.034 161.611ZM131.403 161.282C131.403 160.68 131.27 160.166 131.004 159.738C130.738 159.298 130.374 158.969 129.911 158.749C129.46 158.518 128.957 158.402 128.402 158.402C127.604 158.402 126.922 158.657 126.355 159.165C125.8 159.674 125.482 160.38 125.401 161.282H131.403ZM136.696 158.975C137.008 158.431 137.471 157.98 138.083 157.622C138.708 157.252 139.431 157.066 140.252 157.066C141.096 157.066 141.859 157.269 142.542 157.674C143.235 158.078 143.779 158.651 144.172 159.391C144.565 160.119 144.762 160.969 144.762 161.941C144.762 162.901 144.565 163.756 144.172 164.508C143.779 165.26 143.235 165.844 142.542 166.26C141.859 166.676 141.096 166.885 140.252 166.885C139.442 166.885 138.725 166.705 138.101 166.347C137.488 165.977 137.02 165.52 136.696 164.977V171.239H135.117V157.223H136.696V158.975ZM143.149 161.941C143.149 161.224 143.004 160.599 142.715 160.067C142.426 159.535 142.033 159.131 141.535 158.853C141.05 158.576 140.512 158.437 139.922 158.437C139.344 158.437 138.806 158.581 138.309 158.871C137.823 159.148 137.43 159.559 137.129 160.102C136.84 160.634 136.696 161.253 136.696 161.958C136.696 162.675 136.84 163.305 137.129 163.849C137.43 164.381 137.823 164.791 138.309 165.081C138.806 165.358 139.344 165.497 139.922 165.497C140.512 165.497 141.05 165.358 141.535 165.081C142.033 164.791 142.426 164.381 142.715 163.849C143.004 163.305 143.149 162.669 143.149 161.941ZM150.205 166.885C149.476 166.885 148.823 166.763 148.245 166.52C147.667 166.266 147.21 165.919 146.874 165.48C146.539 165.029 146.354 164.514 146.319 163.936H147.95C147.996 164.41 148.216 164.797 148.609 165.098C149.014 165.399 149.54 165.549 150.188 165.549C150.789 165.549 151.263 165.416 151.61 165.15C151.957 164.884 152.13 164.549 152.13 164.144C152.13 163.728 151.945 163.421 151.575 163.225C151.205 163.016 150.633 162.814 149.858 162.617C149.153 162.432 148.574 162.247 148.123 162.062C147.684 161.866 147.302 161.582 146.978 161.212C146.666 160.831 146.51 160.333 146.51 159.721C146.51 159.235 146.655 158.79 146.944 158.385C147.233 157.98 147.643 157.662 148.175 157.431C148.707 157.188 149.314 157.066 149.997 157.066C151.049 157.066 151.899 157.332 152.547 157.864C153.194 158.396 153.541 159.125 153.588 160.05H152.009C151.974 159.553 151.772 159.154 151.402 158.853C151.043 158.552 150.558 158.402 149.945 158.402C149.378 158.402 148.927 158.524 148.592 158.766C148.256 159.009 148.089 159.327 148.089 159.721C148.089 160.033 148.187 160.293 148.384 160.501C148.592 160.698 148.846 160.86 149.147 160.987C149.459 161.102 149.887 161.235 150.43 161.386C151.113 161.571 151.668 161.756 152.096 161.941C152.524 162.114 152.888 162.38 153.189 162.739C153.501 163.097 153.663 163.566 153.674 164.144C153.674 164.664 153.53 165.133 153.241 165.549C152.951 165.965 152.541 166.295 152.009 166.538C151.489 166.769 150.887 166.885 150.205 166.885Z" fill="white"/>
<path d="M86.2946 101.84V98.1379H94.6804V130.388H90.5767V101.84H86.2946ZM101.162 127.131C104.939 124.098 107.898 121.615 110.039 119.682C112.18 117.72 113.979 115.683 115.436 113.571C116.923 111.43 117.666 109.334 117.666 107.282C117.666 105.349 117.19 103.833 116.239 102.732C115.317 101.602 113.815 101.037 111.734 101.037C109.712 101.037 108.135 101.677 107.005 102.955C105.905 104.204 105.31 105.884 105.221 107.996H101.296C101.415 104.665 102.426 102.093 104.329 100.279C106.232 98.465 108.686 97.5581 111.689 97.5581C114.752 97.5581 117.176 98.4056 118.96 100.101C120.774 101.796 121.681 104.13 121.681 107.104C121.681 109.572 120.937 111.981 119.45 114.33C117.993 116.649 116.328 118.701 114.455 120.485C112.581 122.24 110.187 124.292 107.273 126.641H122.617V130.031H101.162V127.131ZM132.529 121.734C132.826 123.429 133.51 124.738 134.58 125.66C135.681 126.581 137.153 127.042 138.996 127.042C141.464 127.042 143.278 126.076 144.438 124.143C145.628 122.21 146.193 118.954 146.133 114.374C145.509 115.712 144.468 116.768 143.011 117.541C141.554 118.285 139.933 118.656 138.149 118.656C136.156 118.656 134.372 118.255 132.796 117.452C131.25 116.619 130.031 115.415 129.139 113.839C128.246 112.263 127.8 110.36 127.8 108.13C127.8 104.948 128.722 102.39 130.566 100.457C132.41 98.4948 135.026 97.5135 138.416 97.5135C142.58 97.5135 145.494 98.8665 147.159 101.573C148.854 104.279 149.702 108.308 149.702 113.661C149.702 117.408 149.36 120.5 148.676 122.939C148.021 125.377 146.891 127.236 145.286 128.514C143.71 129.793 141.539 130.432 138.773 130.432C135.74 130.432 133.376 129.615 131.681 127.979C129.986 126.343 129.02 124.262 128.782 121.734H132.529ZM138.818 115.222C140.81 115.222 142.446 114.612 143.725 113.393C145.003 112.144 145.643 110.464 145.643 108.353C145.643 106.122 145.018 104.323 143.769 102.955C142.52 101.587 140.766 100.903 138.506 100.903C136.424 100.903 134.759 101.558 133.51 102.866C132.291 104.175 131.681 105.899 131.681 108.04C131.681 110.211 132.291 111.951 133.51 113.259C134.729 114.568 136.498 115.222 138.818 115.222Z" fill="white"/>
<ellipse cx="373.271" cy="156.814" rx="87.0817" ry="89.1388" fill="#C7FAFF"/>
<path d="M328.074 161.311H322.8L321.829 164H320.164L324.535 151.979H326.357L330.711 164H329.045L328.074 161.311ZM327.623 160.028L325.437 153.922L323.251 160.028H327.623ZM334.194 156.246C334.506 155.703 334.969 155.252 335.582 154.893C336.206 154.523 336.929 154.338 337.75 154.338C338.594 154.338 339.358 154.54 340.04 154.945C340.734 155.35 341.277 155.922 341.671 156.662C342.064 157.391 342.26 158.241 342.26 159.212C342.26 160.172 342.064 161.028 341.671 161.78C341.277 162.531 340.734 163.115 340.04 163.532C339.358 163.948 338.594 164.156 337.75 164.156C336.941 164.156 336.224 163.977 335.599 163.618C334.986 163.248 334.518 162.792 334.194 162.248V168.51H332.616V154.494H334.194V156.246ZM340.647 159.212C340.647 158.495 340.503 157.871 340.213 157.339C339.924 156.807 339.531 156.402 339.034 156.125C338.548 155.847 338.01 155.708 337.421 155.708C336.842 155.708 336.305 155.853 335.807 156.142C335.322 156.42 334.929 156.83 334.628 157.374C334.339 157.906 334.194 158.524 334.194 159.23C334.194 159.947 334.339 160.577 334.628 161.12C334.929 161.652 335.322 162.063 335.807 162.352C336.305 162.63 336.842 162.768 337.421 162.768C338.01 162.768 338.548 162.63 339.034 162.352C339.531 162.063 339.924 161.652 340.213 161.12C340.503 160.577 340.647 159.941 340.647 159.212ZM345.917 156.246C346.229 155.703 346.691 155.252 347.304 154.893C347.929 154.523 348.652 154.338 349.473 154.338C350.317 154.338 351.08 154.54 351.762 154.945C352.456 155.35 353 155.922 353.393 156.662C353.786 157.391 353.983 158.241 353.983 159.212C353.983 160.172 353.786 161.028 353.393 161.78C353 162.531 352.456 163.115 351.762 163.532C351.08 163.948 350.317 164.156 349.473 164.156C348.663 164.156 347.946 163.977 347.322 163.618C346.709 163.248 346.24 162.792 345.917 162.248V168.51H344.338V154.494H345.917V156.246ZM352.37 159.212C352.37 158.495 352.225 157.871 351.936 157.339C351.647 156.807 351.254 156.402 350.756 156.125C350.271 155.847 349.733 155.708 349.143 155.708C348.565 155.708 348.027 155.853 347.53 156.142C347.044 156.42 346.651 156.83 346.35 157.374C346.061 157.906 345.917 158.524 345.917 159.23C345.917 159.947 346.061 160.577 346.35 161.12C346.651 161.652 347.044 162.063 347.53 162.352C348.027 162.63 348.565 162.768 349.143 162.768C349.733 162.768 350.271 162.63 350.756 162.352C351.254 162.063 351.647 161.652 351.936 161.12C352.225 160.577 352.37 159.941 352.37 159.212ZM357.639 151.164V164H356.061V151.164H357.639ZM361.145 152.95C360.844 152.95 360.59 152.846 360.382 152.638C360.173 152.43 360.069 152.175 360.069 151.875C360.069 151.574 360.173 151.32 360.382 151.111C360.59 150.903 360.844 150.799 361.145 150.799C361.434 150.799 361.677 150.903 361.873 151.111C362.082 151.32 362.186 151.574 362.186 151.875C362.186 152.175 362.082 152.43 361.873 152.638C361.677 152.846 361.434 152.95 361.145 152.95ZM361.908 154.494V164H360.33V154.494H361.908ZM364.009 159.23C364.009 158.247 364.205 157.391 364.598 156.662C364.992 155.922 365.535 155.35 366.229 154.945C366.934 154.54 367.738 154.338 368.64 154.338C369.808 154.338 370.768 154.621 371.52 155.188C372.283 155.755 372.786 156.541 373.029 157.547H371.329C371.167 156.969 370.849 156.512 370.375 156.177C369.912 155.841 369.334 155.674 368.64 155.674C367.738 155.674 367.01 155.986 366.454 156.61C365.899 157.223 365.622 158.096 365.622 159.23C365.622 160.375 365.899 161.259 366.454 161.884C367.01 162.508 367.738 162.82 368.64 162.82C369.334 162.82 369.912 162.659 370.375 162.335C370.837 162.011 371.155 161.548 371.329 160.947H373.029C372.774 161.918 372.266 162.699 371.502 163.289C370.739 163.867 369.785 164.156 368.64 164.156C367.738 164.156 366.934 163.954 366.229 163.549C365.535 163.144 364.992 162.572 364.598 161.832C364.205 161.092 364.009 160.224 364.009 159.23ZM374.545 159.212C374.545 158.241 374.742 157.391 375.135 156.662C375.528 155.922 376.066 155.35 376.748 154.945C377.442 154.54 378.211 154.338 379.055 154.338C379.888 154.338 380.611 154.517 381.224 154.876C381.837 155.234 382.293 155.685 382.594 156.229V154.494H384.19V164H382.594V162.231C382.282 162.786 381.814 163.248 381.189 163.618C380.576 163.977 379.859 164.156 379.038 164.156C378.194 164.156 377.431 163.948 376.748 163.532C376.066 163.115 375.528 162.531 375.135 161.78C374.742 161.028 374.545 160.172 374.545 159.212ZM382.594 159.23C382.594 158.513 382.45 157.888 382.16 157.356C381.871 156.824 381.478 156.42 380.981 156.142C380.495 155.853 379.957 155.708 379.368 155.708C378.778 155.708 378.24 155.847 377.754 156.125C377.269 156.402 376.881 156.807 376.592 157.339C376.303 157.871 376.159 158.495 376.159 159.212C376.159 159.941 376.303 160.577 376.592 161.12C376.881 161.652 377.269 162.063 377.754 162.352C378.24 162.63 378.778 162.768 379.368 162.768C379.957 162.768 380.495 162.63 380.981 162.352C381.478 162.063 381.871 161.652 382.16 161.12C382.45 160.577 382.594 159.947 382.594 159.23ZM388.783 155.795V161.398C388.783 161.861 388.881 162.19 389.078 162.387C389.275 162.572 389.616 162.664 390.101 162.664H391.264V164H389.841C388.962 164 388.303 163.798 387.864 163.393C387.424 162.988 387.204 162.323 387.204 161.398V155.795H385.973V154.494H387.204V152.1H388.783V154.494H391.264V155.795H388.783ZM393.991 152.95C393.691 152.95 393.436 152.846 393.228 152.638C393.02 152.43 392.916 152.175 392.916 151.875C392.916 151.574 393.02 151.32 393.228 151.111C393.436 150.903 393.691 150.799 393.991 150.799C394.281 150.799 394.523 150.903 394.72 151.111C394.928 151.32 395.032 151.574 395.032 151.875C395.032 152.175 394.928 152.43 394.72 152.638C394.523 152.846 394.281 152.95 393.991 152.95ZM394.755 154.494V164H393.176V154.494H394.755ZM401.591 164.156C400.7 164.156 399.891 163.954 399.162 163.549C398.445 163.144 397.879 162.572 397.462 161.832C397.058 161.08 396.855 160.213 396.855 159.23C396.855 158.258 397.063 157.403 397.48 156.662C397.908 155.911 398.486 155.338 399.214 154.945C399.943 154.54 400.758 154.338 401.66 154.338C402.562 154.338 403.378 154.54 404.106 154.945C404.835 155.338 405.407 155.905 405.823 156.645C406.251 157.385 406.465 158.247 406.465 159.23C406.465 160.213 406.246 161.08 405.806 161.832C405.378 162.572 404.794 163.144 404.054 163.549C403.314 163.954 402.493 164.156 401.591 164.156ZM401.591 162.768C402.158 162.768 402.69 162.635 403.187 162.369C403.684 162.103 404.083 161.704 404.384 161.173C404.696 160.641 404.852 159.993 404.852 159.23C404.852 158.466 404.702 157.819 404.401 157.287C404.1 156.755 403.707 156.362 403.221 156.107C402.736 155.841 402.21 155.708 401.643 155.708C401.065 155.708 400.533 155.841 400.047 156.107C399.573 156.362 399.191 156.755 398.902 157.287C398.613 157.819 398.469 158.466 398.469 159.23C398.469 160.005 398.607 160.658 398.885 161.19C399.174 161.722 399.556 162.121 400.03 162.387C400.504 162.641 401.024 162.768 401.591 162.768ZM413.172 154.321C414.329 154.321 415.265 154.673 415.982 155.379C416.699 156.073 417.058 157.079 417.058 158.397V164H415.497V158.623C415.497 157.674 415.26 156.952 414.786 156.454C414.311 155.945 413.664 155.691 412.843 155.691C412.01 155.691 411.345 155.951 410.848 156.472C410.362 156.992 410.119 157.749 410.119 158.744V164H408.541V154.494H410.119V155.847C410.432 155.361 410.854 154.986 411.386 154.72C411.929 154.454 412.525 154.321 413.172 154.321ZM423.002 164.156C422.273 164.156 421.62 164.035 421.042 163.792C420.463 163.537 420.007 163.19 419.671 162.751C419.336 162.3 419.151 161.785 419.116 161.207H420.747C420.793 161.681 421.013 162.069 421.406 162.369C421.811 162.67 422.337 162.82 422.984 162.82C423.586 162.82 424.06 162.687 424.407 162.421C424.754 162.155 424.927 161.82 424.927 161.415C424.927 160.999 424.742 160.693 424.372 160.496C424.002 160.288 423.43 160.085 422.655 159.889C421.949 159.704 421.371 159.519 420.92 159.334C420.481 159.137 420.099 158.854 419.775 158.484C419.463 158.102 419.307 157.605 419.307 156.992C419.307 156.506 419.451 156.061 419.741 155.656C420.03 155.252 420.44 154.934 420.972 154.702C421.504 154.459 422.111 154.338 422.794 154.338C423.846 154.338 424.696 154.604 425.344 155.136C425.991 155.668 426.338 156.396 426.384 157.322H424.806C424.771 156.824 424.569 156.425 424.199 156.125C423.84 155.824 423.354 155.674 422.742 155.674C422.175 155.674 421.724 155.795 421.389 156.038C421.053 156.281 420.885 156.599 420.885 156.992C420.885 157.304 420.984 157.564 421.18 157.773C421.389 157.969 421.643 158.131 421.944 158.258C422.256 158.374 422.684 158.507 423.227 158.657C423.91 158.842 424.465 159.027 424.893 159.212C425.32 159.386 425.685 159.652 425.985 160.01C426.298 160.369 426.459 160.837 426.471 161.415C426.471 161.936 426.326 162.404 426.037 162.82C425.748 163.237 425.338 163.566 424.806 163.809C424.285 164.04 423.684 164.156 423.002 164.156Z" fill="#7BC8CF"/>
<ellipse cx="211.45" cy="347.433" rx="87.0817" ry="89.1388" fill="#EAF9FB"/>
<path d="M178.474 327.273V339.52H176.028V327.273H178.474ZM186.22 327.151C187.747 327.151 189.013 327.545 190.019 328.331C191.025 329.117 191.69 330.187 192.014 331.54H189.446C189.181 330.881 188.764 330.361 188.198 329.979C187.642 329.597 186.972 329.406 186.185 329.406C185.538 329.406 184.954 329.568 184.433 329.892C183.913 330.216 183.508 330.679 183.219 331.28C182.93 331.881 182.785 332.587 182.785 333.396C182.785 334.194 182.93 334.894 183.219 335.495C183.508 336.096 183.913 336.559 184.433 336.883C184.954 337.207 185.538 337.369 186.185 337.369C186.972 337.369 187.642 337.178 188.198 336.796C188.764 336.414 189.181 335.894 189.446 335.235H192.014C191.69 336.588 191.025 337.658 190.019 338.444C189.013 339.23 187.747 339.624 186.22 339.624C185.052 339.624 184.017 339.363 183.115 338.843C182.225 338.311 181.531 337.571 181.033 336.623C180.548 335.674 180.305 334.599 180.305 333.396C180.305 332.182 180.548 331.101 181.033 330.152C181.531 329.204 182.225 328.47 183.115 327.949C184.005 327.417 185.04 327.151 186.22 327.151ZM199.591 327.099C200.735 327.099 201.77 327.365 202.696 327.897C203.632 328.429 204.367 329.175 204.899 330.135C205.442 331.083 205.714 332.159 205.714 333.361C205.714 334.564 205.442 335.645 204.899 336.605C204.367 337.565 203.632 338.311 202.696 338.843C201.77 339.375 200.735 339.641 199.591 339.641C198.446 339.641 197.405 339.375 196.468 338.843C195.543 338.311 194.809 337.565 194.265 336.605C193.733 335.645 193.467 334.564 193.467 333.361C193.467 332.159 193.733 331.083 194.265 330.135C194.809 329.175 195.543 328.429 196.468 327.897C197.405 327.365 198.446 327.099 199.591 327.099ZM199.591 329.354C198.874 329.354 198.243 329.516 197.7 329.84C197.156 330.164 196.728 330.632 196.416 331.245C196.115 331.847 195.965 332.552 195.965 333.361C195.965 334.171 196.115 334.882 196.416 335.495C196.728 336.096 197.156 336.559 197.7 336.883C198.243 337.207 198.874 337.369 199.591 337.369C200.308 337.369 200.938 337.207 201.481 336.883C202.025 336.559 202.447 336.096 202.748 335.495C203.06 334.882 203.216 334.171 203.216 333.361C203.216 332.552 203.06 331.847 202.748 331.245C202.447 330.632 202.025 330.164 201.481 329.84C200.938 329.516 200.308 329.354 199.591 329.354ZM217.927 339.52H215.481L209.999 331.193V339.52H207.553V327.273H209.999L215.481 335.669V327.273H217.927V339.52ZM219.862 327.151C219.862 326.758 220.001 326.44 220.279 326.197C220.556 325.943 220.92 325.816 221.371 325.816C221.822 325.816 222.187 325.943 222.464 326.197C222.742 326.44 222.881 326.758 222.881 327.151C222.881 327.533 222.742 327.851 222.464 328.105C222.187 328.348 221.822 328.47 221.371 328.47C220.92 328.47 220.556 328.348 220.279 328.105C220.001 327.851 219.862 327.533 219.862 327.151ZM222.586 329.91V339.52H220.14V329.91H222.586ZM228.111 329.788C229.279 329.788 230.216 330.083 230.922 330.673C231.627 331.263 232.066 332.049 232.24 333.032H229.95C229.858 332.569 229.65 332.199 229.326 331.922C229.002 331.644 228.58 331.505 228.059 331.505C227.643 331.505 227.319 331.604 227.088 331.8C226.857 331.997 226.741 332.263 226.741 332.598C226.741 332.864 226.834 333.078 227.019 333.24C227.204 333.402 227.435 333.529 227.712 333.622C227.99 333.714 228.389 333.824 228.909 333.951C229.638 334.113 230.228 334.287 230.679 334.472C231.141 334.645 231.535 334.928 231.858 335.322C232.194 335.703 232.361 336.224 232.361 336.883C232.361 337.704 232.038 338.369 231.39 338.878C230.754 339.387 229.892 339.641 228.805 339.641C227.556 339.641 226.556 339.363 225.804 338.808C225.053 338.242 224.596 337.438 224.434 336.397H226.776C226.834 336.871 227.042 337.247 227.4 337.525C227.759 337.791 228.227 337.924 228.805 337.924C229.222 337.924 229.54 337.825 229.759 337.629C229.979 337.421 230.089 337.155 230.089 336.831C230.089 336.553 229.991 336.328 229.794 336.154C229.609 335.981 229.372 335.848 229.083 335.755C228.805 335.663 228.406 335.553 227.886 335.426C227.169 335.264 226.585 335.102 226.134 334.94C225.695 334.767 225.313 334.495 224.989 334.125C224.677 333.755 224.521 333.246 224.521 332.598C224.521 331.766 224.839 331.089 225.475 330.569C226.111 330.048 226.99 329.788 228.111 329.788ZM239.318 337.421V339.52H238.034C236.958 339.52 236.132 339.259 235.553 338.739C234.987 338.219 234.703 337.351 234.703 336.137V331.974H233.368V329.91H234.703V327.533H237.149V329.91H239.3V331.974H237.149V336.172C237.149 336.634 237.242 336.958 237.427 337.143C237.612 337.328 237.924 337.421 238.364 337.421H239.318ZM244.391 329.788C245.559 329.788 246.496 330.083 247.201 330.673C247.906 331.263 248.346 332.049 248.519 333.032H246.23C246.137 332.569 245.929 332.199 245.605 331.922C245.281 331.644 244.859 331.505 244.339 331.505C243.922 331.505 243.599 331.604 243.367 331.8C243.136 331.997 243.02 332.263 243.02 332.598C243.02 332.864 243.113 333.078 243.298 333.24C243.483 333.402 243.714 333.529 243.992 333.622C244.269 333.714 244.668 333.824 245.189 333.951C245.917 334.113 246.507 334.287 246.958 334.472C247.421 334.645 247.814 334.928 248.138 335.322C248.473 335.703 248.641 336.224 248.641 336.883C248.641 337.704 248.317 338.369 247.669 338.878C247.033 339.387 246.172 339.641 245.085 339.641C243.836 339.641 242.835 339.363 242.084 338.808C241.332 338.242 240.875 337.438 240.713 336.397H243.055C243.113 336.871 243.321 337.247 243.68 337.525C244.038 337.791 244.506 337.924 245.085 337.924C245.501 337.924 245.819 337.825 246.039 337.629C246.258 337.421 246.368 337.155 246.368 336.831C246.368 336.553 246.27 336.328 246.073 336.154C245.888 335.981 245.651 335.848 245.362 335.755C245.085 335.663 244.686 335.553 244.165 335.426C243.448 335.264 242.864 335.102 242.413 334.94C241.974 334.767 241.592 334.495 241.268 334.125C240.956 333.755 240.8 333.246 240.8 332.598C240.8 331.766 241.118 331.089 241.754 330.569C242.39 330.048 243.269 329.788 244.391 329.788ZM188.881 369.546C188.881 367.337 189.309 365.354 190.165 363.596C191.02 361.839 192.148 360.416 193.547 359.329H195.924V359.572C192.801 362.151 191.24 365.476 191.24 369.546C191.24 373.617 192.801 376.942 195.924 379.52V379.746H193.547C192.148 378.659 191.02 377.242 190.165 375.496C189.309 373.738 188.881 371.755 188.881 369.546ZM206.252 364.273L202.106 372.235V376.52H199.643V372.235L195.479 364.273H198.29L200.892 369.633L203.493 364.273H206.252ZM212.003 366.788C212.939 366.788 213.778 366.985 214.518 367.378C215.269 367.771 215.859 368.344 216.287 369.095C216.715 369.835 216.929 370.708 216.929 371.715C216.929 372.721 216.715 373.594 216.287 374.334C215.859 375.074 215.269 375.646 214.518 376.051C213.778 376.444 212.939 376.641 212.003 376.641C211.066 376.641 210.222 376.444 209.47 376.051C208.73 375.646 208.146 375.074 207.718 374.334C207.29 373.594 207.076 372.721 207.076 371.715C207.076 370.708 207.29 369.835 207.718 369.095C208.146 368.344 208.73 367.771 209.47 367.378C210.222 366.985 211.066 366.788 212.003 366.788ZM212.003 368.904C211.32 368.904 210.742 369.147 210.268 369.633C209.794 370.107 209.557 370.801 209.557 371.715C209.557 372.628 209.794 373.328 210.268 373.813C210.742 374.288 211.32 374.525 212.003 374.525C212.685 374.525 213.263 374.288 213.737 373.813C214.211 373.328 214.448 372.628 214.448 371.715C214.448 370.801 214.211 370.107 213.737 369.633C213.263 369.147 212.685 368.904 212.003 368.904ZM227.851 366.91V376.52H225.405V374.577C225.151 375.224 224.729 375.733 224.139 376.103C223.561 376.462 222.89 376.641 222.127 376.641C221.017 376.641 220.132 376.277 219.473 375.548C218.814 374.82 218.484 373.802 218.484 372.495V366.91H220.913V372.218C220.913 372.981 221.109 373.576 221.502 374.004C221.896 374.421 222.428 374.629 223.098 374.629C223.804 374.629 224.365 374.403 224.781 373.952C225.197 373.501 225.405 372.854 225.405 372.009V366.91H227.851ZM235.383 369.529C235.383 371.749 234.955 373.738 234.099 375.496C233.244 377.254 232.116 378.671 230.717 379.746H228.34V379.52C231.463 376.942 233.024 373.617 233.024 369.546C233.024 365.476 231.463 362.151 228.34 359.572V359.329H230.717C232.116 360.416 233.244 361.839 234.099 363.596C234.955 365.343 235.383 367.32 235.383 369.529Z" fill="#1AAABA"/>
</svg>
