<svg width="395" height="302" viewBox="0 0 395 302" fill="none" xmlns="http://www.w3.org/2000/svg">
<circle cx="386.702" cy="63.7371" r="5.82" transform="rotate(155.642 386.702 63.7371)" fill="#004C84"/>
<circle cx="7.70199" cy="245.737" r="5.82" transform="rotate(155.642 7.70199 245.737)" fill="#004C84"/>
<circle r="9.32319" transform="matrix(0.858992 -0.51199 -0.51199 -0.858992 331.624 288.658)" fill="#55DCE9"/>
<circle r="4.90113" transform="matrix(0.858992 -0.51199 -0.51199 -0.858992 84.687 6.7201)" fill="#55DCE9"/>
<circle opacity="0.4" r="2.50517" transform="matrix(1 8.74228e-08 8.74228e-08 -1 207.312 77.0944)" stroke="#72949B" stroke-width="2" stroke-linecap="round" stroke-linejoin="round"/>
<circle opacity="0.4" r="4.005" transform="matrix(1 8.74228e-08 8.74228e-08 -1 114.409 236.934)" stroke="#36A7BD" stroke-width="2" stroke-linecap="round" stroke-linejoin="round"/>
<circle cx="233.307" cy="122" r="36" fill="#E7F1F3"/>
<path d="M242.863 129.106C242.863 130.493 242.53 131.783 241.864 132.976C241.198 134.168 240.186 135.139 238.827 135.888C237.468 136.637 235.789 137.012 233.792 137.012C231.85 137.012 230.117 136.665 228.591 135.971C227.093 135.25 225.886 134.279 224.971 133.059C224.083 131.811 223.57 130.396 223.431 128.815H227.468C227.551 129.647 227.828 130.465 228.3 131.27C228.799 132.046 229.492 132.698 230.38 133.225C231.296 133.725 232.391 133.974 233.667 133.974C235.332 133.974 236.608 133.53 237.495 132.643C238.383 131.755 238.827 130.618 238.827 129.231C238.827 128.038 238.508 127.067 237.87 126.318C237.259 125.569 236.497 124.987 235.581 124.571C234.666 124.127 233.418 123.655 231.836 123.156C229.978 122.546 228.48 121.977 227.343 121.45C226.233 120.895 225.276 120.077 224.472 118.995C223.695 117.913 223.307 116.485 223.307 114.709C223.307 113.184 223.667 111.838 224.388 110.673C225.137 109.508 226.192 108.607 227.551 107.969C228.938 107.331 230.56 107.012 232.419 107.012C235.304 107.012 237.592 107.719 239.284 109.134C240.977 110.521 241.961 112.296 242.239 114.46H238.161C237.939 113.295 237.343 112.268 236.372 111.381C235.401 110.493 234.083 110.049 232.419 110.049C230.893 110.049 229.673 110.451 228.757 111.256C227.842 112.033 227.384 113.142 227.384 114.585C227.384 115.722 227.676 116.651 228.258 117.372C228.868 118.066 229.617 118.621 230.505 119.037C231.393 119.425 232.613 119.869 234.167 120.368C236.053 120.978 237.565 121.561 238.702 122.116C239.867 122.671 240.852 123.517 241.656 124.654C242.461 125.763 242.863 127.248 242.863 129.106Z" fill="#004C84"/>
<path d="M233.248 103V107" stroke="#004C84" stroke-width="2" stroke-linecap="round" stroke-linejoin="round"/>
<path d="M233.248 137V141" stroke="#004C84" stroke-width="2" stroke-linecap="round" stroke-linejoin="round"/>
<path d="M197 122C197 121.522 197.009 121.045 197.028 120.572M198.463 111.809C202.858 96.8898 216.657 86 233 86C252.882 86 269 102.118 269 122C269 141.882 252.882 158 233 158C214.604 158 199.431 144.202 197.265 126.39" stroke="#004C84" stroke-width="2" stroke-linecap="round" stroke-linejoin="round"/>
<path d="M199 181.001C225 191.501 232.702 191.801 239.5 191.001C247.998 190.001 264.5 179.502 269 184.001C273.5 188.501 243.773 209.688 229 212.501C218.5 214.501 193 208.001 168 205.501L158 213.501V176.001C159.915 175.305 161.936 174.608 164 173.933C165.321 173.5 166.66 173.077 168 172.667C168.834 172.412 169.669 172.163 170.5 171.92C172.542 171.324 174.562 170.769 176.5 170.275C178.432 169.783 180.282 169.351 181.993 169C185.057 168.371 187.673 168 189.5 168C204.5 168 232 176.501 231.5 184.001C231.073 190.407 210.5 179.001 199 181.001Z" fill="#D7F1F5"/>
<path d="M179 169.661C183.347 168.639 187.102 168 189.5 168C204.5 168 232 176.501 231.5 184.001C231.073 190.407 210.5 179.001 199 181.001C225 191.501 232.702 191.801 239.5 191.001C247.998 190.001 264.5 179.502 269 184.001C273.5 188.501 243.773 209.688 229 212.501C218.5 214.501 193 208.001 168 205.501L158 213.501V176.001C159.448 175.474 160.958 174.947 162.5 174.43M168.549 172.5C167.866 172.707 167.182 172.918 166.5 173.132" stroke="#36A7BD" stroke-width="2" stroke-linecap="round" stroke-linejoin="round"/>
<path d="M124 188.993C124 187.219 125.169 185.656 126.871 185.155L158 176V222C158 224.209 156.209 226 154 226H128C125.791 226 124 224.209 124 222V188.993Z" stroke="#36A7BD" stroke-width="2" stroke-linecap="round" stroke-linejoin="round"/>
</svg>
