<svg width="392" height="327" viewBox="0 0 392 327" fill="none" xmlns="http://www.w3.org/2000/svg">
<circle cx="198.141" cy="72" r="12" fill="#D7F1F5"/>
<circle cx="198.141" cy="72" r="12" stroke="#36A7BD" stroke-width="2" stroke-linecap="round" stroke-linejoin="round"/>
<path d="M198.141 84V104" stroke="#36A7BD" stroke-width="2" stroke-linecap="round" stroke-linejoin="round"/>
<path d="M202.141 100L198.141 104L194.141 100" stroke="#36A7BD" stroke-width="2" stroke-linecap="round" stroke-linejoin="round"/>
<path d="M145.75 222.745C149.064 217.006 156.403 215.039 162.143 218.353C167.882 221.667 169.849 229.006 166.535 234.745C163.221 240.485 155.882 242.451 150.143 239.137C144.403 235.824 142.437 228.485 145.75 222.745Z" fill="#D7F1F5"/>
<path d="M145.75 222.746C149.064 217.007 156.403 215.04 162.143 218.354C167.882 221.668 169.849 229.007 166.535 234.746C163.221 240.486 155.882 242.452 150.143 239.138C144.403 235.825 142.437 228.486 145.75 222.746Z" stroke="#36A7BD" stroke-width="2" stroke-linecap="round" stroke-linejoin="round"/>
<path d="M162.143 218.354L172.143 201.033" stroke="#36A7BD" stroke-width="2" stroke-linecap="round" stroke-linejoin="round"/>
<path d="M166.677 202.498L172.141 201.034L173.605 206.498" stroke="#36A7BD" stroke-width="2" stroke-linecap="round" stroke-linejoin="round"/>
<path d="M229.75 234.746C226.437 229.007 228.403 221.668 234.143 218.354C239.882 215.04 247.221 217.007 250.535 222.746C253.849 228.486 251.882 235.825 246.143 239.138C240.403 242.452 233.064 240.486 229.75 234.746Z" fill="#D7F1F5"/>
<path d="M229.748 234.745C226.435 229.006 228.401 221.667 234.141 218.353C239.88 215.039 247.219 217.006 250.533 222.745C253.847 228.485 251.88 235.824 246.141 239.137C240.401 242.451 233.062 240.485 229.748 234.745Z" stroke="#36A7BD" stroke-width="2" stroke-linecap="round" stroke-linejoin="round"/>
<path d="M234.143 218.354L224.143 201.033" stroke="#36A7BD" stroke-width="2" stroke-linecap="round" stroke-linejoin="round"/>
<path d="M222.677 206.497L224.141 201.033L229.605 202.497" stroke="#36A7BD" stroke-width="2" stroke-linecap="round" stroke-linejoin="round"/>
<path d="M282.386 145.85C275.985 147.565 269.405 143.766 267.689 137.365C265.974 130.963 269.773 124.383 276.174 122.668C282.576 120.952 289.156 124.751 290.871 131.153C292.587 137.555 288.788 144.135 282.386 145.85Z" fill="#D7F1F5"/>
<path d="M282.386 145.85C275.985 147.565 269.405 143.766 267.689 137.365C265.974 130.963 269.773 124.383 276.174 122.668C282.576 120.952 289.156 124.751 290.871 131.153C292.587 137.555 288.788 144.135 282.386 145.85Z" stroke="#36A7BD" stroke-width="2" stroke-linecap="round" stroke-linejoin="round"/>
<path d="M267.688 137.365L248.369 142.542" stroke="#36A7BD" stroke-width="2" stroke-linecap="round" stroke-linejoin="round"/>
<path d="M253.268 145.37L248.369 142.542L251.197 137.643" stroke="#36A7BD" stroke-width="2" stroke-linecap="round" stroke-linejoin="round"/>
<path d="M113.899 145.851C120.301 147.566 126.881 143.767 128.596 137.366C130.311 130.964 126.512 124.384 120.111 122.669C113.709 120.953 107.129 124.752 105.414 131.154C103.699 137.556 107.498 144.136 113.899 145.851Z" fill="#D7F1F5"/>
<path d="M105.412 131.154C107.128 124.752 113.708 120.953 120.109 122.669C126.511 124.384 130.31 130.964 128.594 137.366C126.879 143.767 120.299 147.566 113.898 145.851C111.252 145.142 109.051 143.603 107.5 141.588M105.41 137.366C105.531 137.815 105.677 138.255 105.849 138.686" stroke="#36A7BD" stroke-width="2" stroke-linecap="round" stroke-linejoin="round"/>
<path d="M128.594 137.365L147.912 142.542" stroke="#36A7BD" stroke-width="2" stroke-linecap="round" stroke-linejoin="round"/>
<path d="M143.013 145.37L147.912 142.542L145.084 137.643" stroke="#36A7BD" stroke-width="2" stroke-linecap="round" stroke-linejoin="round"/>
<circle cx="198.307" cy="154" r="36" fill="#E7F1F3"/>
<path d="M207.863 161.106C207.863 162.493 207.53 163.783 206.864 164.976C206.198 166.168 205.186 167.139 203.827 167.888C202.468 168.637 200.789 169.012 198.792 169.012C196.85 169.012 195.117 168.665 193.591 167.971C192.093 167.25 190.886 166.279 189.971 165.059C189.083 163.811 188.57 162.396 188.431 160.815H192.468C192.551 161.647 192.828 162.465 193.3 163.27C193.799 164.046 194.492 164.698 195.38 165.225C196.296 165.725 197.391 165.974 198.667 165.974C200.332 165.974 201.608 165.53 202.495 164.643C203.383 163.755 203.827 162.618 203.827 161.231C203.827 160.038 203.508 159.067 202.87 158.318C202.259 157.569 201.497 156.987 200.581 156.571C199.666 156.127 198.418 155.655 196.836 155.156C194.978 154.546 193.48 153.977 192.343 153.45C191.233 152.895 190.276 152.077 189.472 150.995C188.695 149.913 188.307 148.485 188.307 146.709C188.307 145.184 188.667 143.838 189.388 142.673C190.137 141.508 191.192 140.607 192.551 139.969C193.938 139.331 195.56 139.012 197.419 139.012C200.304 139.012 202.592 139.719 204.284 141.134C205.977 142.521 206.961 144.296 207.239 146.46H203.161C202.939 145.295 202.343 144.268 201.372 143.381C200.401 142.493 199.083 142.049 197.419 142.049C195.893 142.049 194.673 142.451 193.757 143.256C192.842 144.033 192.384 145.142 192.384 146.585C192.384 147.722 192.676 148.651 193.258 149.372C193.868 150.066 194.617 150.621 195.505 151.037C196.393 151.425 197.613 151.869 199.167 152.368C201.053 152.978 202.565 153.561 203.702 154.116C204.867 154.671 205.852 155.517 206.656 156.654C207.461 157.763 207.863 159.248 207.863 161.106Z" fill="#004C84"/>
<path d="M198.248 135V139" stroke="#004C84" stroke-width="2" stroke-linecap="round" stroke-linejoin="round"/>
<path d="M198.248 169V173" stroke="#004C84" stroke-width="2" stroke-linecap="round" stroke-linejoin="round"/>
<path d="M162 154C162 153.522 162.009 153.045 162.028 152.572M163.463 143.809C167.858 128.89 181.657 118 198 118C217.882 118 234 134.118 234 154C234 173.882 217.882 190 198 190C179.604 190 164.431 176.202 162.265 158.39" stroke="#004C84" stroke-width="2" stroke-linecap="round" stroke-linejoin="round"/>
<circle cx="325.702" cy="318.702" r="5.82" transform="rotate(-24.3578 325.702 318.702)" fill="#004C84"/>
<circle cx="383.702" cy="26.7024" r="5.82" transform="rotate(-24.3578 383.702 26.7024)" fill="#004C84"/>
<circle r="9.32319" transform="matrix(-0.858992 0.51199 0.51199 0.858992 79.7805 43.7819)" fill="#55DCE9"/>
<circle r="4.90113" transform="matrix(-0.858992 0.51199 0.51199 0.858992 6.71922 265.719)" fill="#55DCE9"/>
<circle opacity="0.4" r="2.50517" transform="matrix(-1 0 0 1 154.092 195.345)" stroke="#72949B" stroke-width="2" stroke-linecap="round" stroke-linejoin="round"/>
<circle opacity="0.4" r="4.005" transform="matrix(-1 0 0 1 276.995 95.505)" stroke="#72949B" stroke-width="2" stroke-linecap="round" stroke-linejoin="round"/>
</svg>
