<svg width="400" height="327" viewBox="0 0 400 327" fill="none" xmlns="http://www.w3.org/2000/svg">
<path d="M11.1234 261.845C12.4491 264.773 11.15 268.222 8.22178 269.547C5.2936 270.873 1.84516 269.574 0.51948 266.646C-0.806202 263.717 0.492882 260.269 3.42107 258.943C6.34925 257.618 9.79769 258.917 11.1234 261.845Z" fill="#004C84"/>
<path d="M399.125 29.8449C400.451 32.7731 399.152 36.2215 396.224 37.5472C393.296 38.8729 389.847 37.5738 388.521 34.6456C387.196 31.7174 388.495 28.269 391.423 26.9433C394.351 25.6176 397.8 26.9167 399.125 29.8449Z" fill="#004C84"/>
<path d="M1.31608 14.098C3.95235 18.521 9.67501 19.9694 14.098 17.3332C18.521 14.6969 19.9694 8.97424 17.3332 4.55125C14.6969 0.128252 8.97424 -1.32018 4.55125 1.31608C0.128252 3.95235 -1.32018 9.67501 1.31608 14.098Z" fill="#55DCE9"/>
<path d="M390.692 323.774C392.078 326.1 395.086 326.861 397.411 325.475C399.736 324.089 400.498 321.081 399.112 318.756C397.726 316.431 394.718 315.669 392.393 317.055C390.067 318.441 389.306 321.449 390.692 323.774Z" fill="#55DCE9"/>
<circle opacity="0.4" r="2.50517" transform="matrix(-1 -1.74846e-07 -1.74846e-07 1 76.6862 130.888)" stroke="#978BE6" stroke-width="2" stroke-linecap="round" stroke-linejoin="round"/>
<circle opacity="0.4" r="4.005" transform="matrix(-1 -1.74846e-07 -1.74846e-07 1 239.589 271.048)" stroke="#36A7BD" stroke-width="2" stroke-linecap="round" stroke-linejoin="round"/>
<path d="M237 137.667C237 116.956 220.211 100.167 199.5 100.167C178.789 100.167 162 116.956 162 137.667C162 161.113 177.614 170.62 183.75 195.417H214.5C220.062 170.231 237 161.621 237 137.667Z" fill="#D7F1F5"/>
<path d="M180.75 105.184C186.266 101.993 192.67 100.167 199.5 100.167C220.211 100.167 237 116.956 237 137.667C237 161.621 220.062 170.231 214.5 195.417H183.75C177.614 170.62 162 161.113 162 137.667C162 132.622 162.996 127.81 164.802 123.417C165.204 122.44 165.645 121.484 166.125 120.551M170.075 114.417L168.769 116.292" stroke="#36A7BD" stroke-width="2" stroke-linecap="round" stroke-linejoin="round"/>
<rect x="183" y="195.417" width="32.25" height="20.25" rx="3.75" stroke="#36A7BD" stroke-width="2" stroke-linecap="round" stroke-linejoin="round"/>
<path d="M207.75 215.667C207.75 220.223 204.056 223.917 199.5 223.917C194.944 223.917 191.25 220.223 191.25 215.667" stroke="#36A7BD" stroke-width="2" stroke-linecap="round" stroke-linejoin="round"/>
<circle cx="97" cy="70.4219" r="36" fill="#E7F1F3"/>
<path d="M106.556 77.5279C106.556 78.9149 106.223 80.2047 105.558 81.3975C104.892 82.5903 103.879 83.5612 102.52 84.3102C101.161 85.0591 99.4827 85.4336 97.4854 85.4336C95.5437 85.4336 93.81 85.0869 92.2843 84.3934C90.7864 83.6722 89.5798 82.7013 88.6644 81.4808C87.7767 80.2325 87.2635 78.8178 87.1248 77.2366H91.1609C91.2441 78.0688 91.5215 78.8871 91.9931 79.6916C92.4924 80.4683 93.1859 81.1201 94.0735 81.6472C94.9889 82.1465 96.0846 82.3961 97.3606 82.3961C99.025 82.3961 100.301 81.9523 101.189 81.0647C102.076 80.177 102.52 79.0397 102.52 77.6527C102.52 76.4599 102.201 75.4891 101.563 74.7401C100.953 73.9912 100.19 73.4086 99.2746 72.9925C98.3592 72.5487 97.111 72.0771 95.5298 71.5778C93.6713 70.9676 92.1734 70.3989 91.0361 69.8719C89.9265 69.3171 88.9695 68.4988 88.165 67.417C87.3883 66.3351 87 64.9065 87 63.1312C87 61.6056 87.3606 60.2602 88.0818 59.0952C88.8308 57.9301 89.8849 57.0286 91.2441 56.3906C92.6311 55.7526 94.2538 55.4336 96.1123 55.4336C98.9972 55.4336 101.286 56.1409 102.978 57.5556C104.67 58.9426 105.655 60.7179 105.932 62.8816H101.854C101.632 61.7165 101.036 60.6902 100.065 59.8025C99.0943 58.9149 97.7767 58.471 96.1123 58.471C94.5867 58.471 93.3662 58.8733 92.4508 59.6777C91.5354 60.4544 91.0777 61.564 91.0777 63.0064C91.0777 64.1437 91.3689 65.073 91.9515 65.7942C92.5617 66.4877 93.3107 67.0425 94.1983 67.4586C95.086 67.8469 96.3065 68.2907 97.8599 68.79C99.7462 69.4003 101.258 69.9828 102.395 70.5376C103.56 71.0924 104.545 71.9384 105.35 73.0758C106.154 74.1853 106.556 75.6694 106.556 77.5279Z" fill="#004C84"/>
<path d="M96.9414 51.4219V55.4219" stroke="#004C84" stroke-width="2" stroke-linecap="round" stroke-linejoin="round"/>
<path d="M96.9414 85.4219V89.4219" stroke="#004C84" stroke-width="2" stroke-linecap="round" stroke-linejoin="round"/>
<path d="M79.9859 38.5393C93.6433 31.0979 111.101 33.1551 122.657 44.7111C136.716 58.77 136.716 81.564 122.657 95.6228C108.598 109.682 85.8042 109.682 71.7453 95.6228C58.7374 82.6149 57.765 62.129 68.8282 48.003M71.7453 44.7111C72.0836 44.3729 72.4269 44.0428 72.775 43.7208" stroke="#004C84" stroke-width="2" stroke-linecap="round" stroke-linejoin="round"/>
<path d="M122.656 95.623L136.798 109.765" stroke="#004C84" stroke-width="2" stroke-linecap="round" stroke-linejoin="round"/>
<path d="M136.799 104.109V109.766H131.143" stroke="#004C84" stroke-width="2" stroke-linecap="round" stroke-linejoin="round"/>
<circle r="36" transform="matrix(-1 0 0 1 302.627 70.4229)" fill="#E7F1F3"/>
<path d="M312.626 77.5289C312.626 78.9158 312.294 80.2057 311.628 81.3985C310.962 82.5913 309.95 83.5622 308.59 84.3111C307.231 85.0601 305.553 85.4346 303.556 85.4346C301.614 85.4346 299.88 85.0878 298.355 84.3944C296.857 83.6731 295.65 82.7023 294.735 81.4817C293.847 80.2335 293.334 78.8188 293.195 77.2376H297.231C297.314 78.0698 297.592 78.8881 298.063 79.6925C298.563 80.4692 299.256 81.1211 300.144 81.6482C301.059 82.1475 302.155 82.3971 303.431 82.3971C305.095 82.3971 306.371 81.9533 307.259 81.0656C308.147 80.178 308.59 79.0407 308.59 77.6537C308.59 76.4609 308.271 75.4901 307.633 74.7411C307.023 73.9921 306.26 73.4096 305.345 72.9935C304.43 72.5497 303.181 72.0781 301.6 71.5788C299.742 70.9686 298.244 70.3999 297.106 69.8729C295.997 69.3181 295.04 68.4998 294.235 67.4179C293.459 66.3361 293.07 64.9075 293.07 63.1322C293.07 61.6066 293.431 60.2612 294.152 59.0962C294.901 57.9311 295.955 57.0296 297.314 56.3916C298.701 55.7536 300.324 55.4346 302.183 55.4346C305.068 55.4346 307.356 56.1419 309.048 57.5566C310.74 58.9436 311.725 60.7189 312.002 62.8826H307.925C307.703 61.7175 307.106 60.6912 306.135 59.8035C305.165 58.9158 303.847 58.472 302.183 58.472C300.657 58.472 299.436 58.8742 298.521 59.6787C297.606 60.4554 297.148 61.5649 297.148 63.0074C297.148 64.1447 297.439 65.074 298.022 65.7952C298.632 66.4887 299.381 67.0434 300.269 67.4595C301.156 67.8479 302.377 68.2917 303.93 68.791C305.816 69.4013 307.328 69.9838 308.466 70.5386C309.631 71.0934 310.615 71.9394 311.42 73.0767C312.224 74.1863 312.626 75.6704 312.626 77.5289Z" fill="#004C84"/>
<path d="M302.686 51.4229V55.4229" stroke="#004C84" stroke-width="2" stroke-linecap="round" stroke-linejoin="round"/>
<path d="M302.686 85.4229V89.4229" stroke="#004C84" stroke-width="2" stroke-linecap="round" stroke-linejoin="round"/>
<path d="M319.643 101.795C305.986 109.236 288.528 107.179 276.972 95.6228C262.913 81.564 262.913 58.77 276.972 44.7111C291.031 30.6523 313.825 30.6523 327.884 44.7112C340.892 57.7191 341.864 78.205 330.801 92.331M327.884 95.6228C327.545 95.9611 327.202 96.2912 326.854 96.6132" stroke="#004C84" stroke-width="2" stroke-linecap="round" stroke-linejoin="round"/>
<path d="M276.971 95.624L262.829 109.766" stroke="#004C84" stroke-width="2" stroke-linecap="round" stroke-linejoin="round"/>
<path d="M262.828 104.11V109.767H268.484" stroke="#004C84" stroke-width="2" stroke-linecap="round" stroke-linejoin="round"/>
<circle r="36" transform="matrix(1 0 0 -1 97 255.339)" fill="#E7F1F3"/>
<path d="M87.0005 248.233C87.0005 246.846 87.3333 245.556 87.9991 244.363C88.6648 243.17 89.6773 242.2 91.0365 241.451C92.3958 240.702 94.074 240.327 96.0712 240.327C98.0129 240.327 99.7467 240.674 101.272 241.367C102.77 242.089 103.977 243.059 104.892 244.28C105.78 245.528 106.293 246.943 106.432 248.524H102.396C102.313 247.692 102.035 246.874 101.564 246.069C101.064 245.292 100.371 244.641 99.4831 244.114C98.5677 243.614 97.472 243.365 96.196 243.365C94.5317 243.365 93.2557 243.808 92.368 244.696C91.4804 245.584 91.0365 246.721 91.0365 248.108C91.0365 249.301 91.3555 250.272 91.9935 251.021C92.6038 251.77 93.3666 252.352 94.282 252.768C95.1974 253.212 96.4457 253.684 98.0268 254.183C99.8854 254.793 101.383 255.362 102.521 255.889C103.63 256.444 104.587 257.262 105.392 258.344C106.168 259.426 106.557 260.854 106.557 262.63C106.557 264.155 106.196 265.501 105.475 266.666C104.726 267.831 103.672 268.732 102.313 269.37C100.926 270.008 99.3028 270.327 97.4443 270.327C94.5594 270.327 92.2709 269.62 90.5788 268.205C88.8867 266.818 87.902 265.043 87.6246 262.879H91.7023C91.9242 264.044 92.5206 265.071 93.4915 265.958C94.4623 266.846 95.7799 267.29 97.4443 267.29C98.97 267.29 100.19 266.887 101.106 266.083C102.021 265.306 102.479 264.197 102.479 262.754C102.479 261.617 102.188 260.688 101.605 259.967C100.995 259.273 100.246 258.718 99.3583 258.302C98.4706 257.914 97.2501 257.47 95.6967 256.971C93.8105 256.36 92.2987 255.778 91.1614 255.223C89.9963 254.668 89.0116 253.822 88.2071 252.685C87.4027 251.575 87.0005 250.091 87.0005 248.233Z" fill="#004C84"/>
<path d="M96.6152 274.339V270.339" stroke="#004C84" stroke-width="2" stroke-linecap="round" stroke-linejoin="round"/>
<path d="M96.6152 240.339V236.339" stroke="#004C84" stroke-width="2" stroke-linecap="round" stroke-linejoin="round"/>
<path d="M79.9859 287.221C93.6433 294.663 111.101 292.606 122.657 281.05C136.716 266.991 136.716 244.197 122.657 230.138C108.598 216.079 85.8042 216.079 71.7453 230.138C58.7374 243.146 57.765 263.632 68.8282 277.758M71.7453 281.05C72.0836 281.388 72.4269 281.718 72.775 282.04" stroke="#004C84" stroke-width="2" stroke-linecap="round" stroke-linejoin="round"/>
<path d="M122.656 230.138L136.798 215.996" stroke="#004C84" stroke-width="2" stroke-linecap="round" stroke-linejoin="round"/>
<path d="M136.799 221.652V215.995H131.143" stroke="#004C84" stroke-width="2" stroke-linecap="round" stroke-linejoin="round"/>
<circle cx="302.627" cy="255.338" r="36" transform="rotate(-180 302.627 255.338)" fill="#E7F1F3"/>
<path d="M312.626 262.444C312.626 263.831 312.294 265.121 311.628 266.314C310.962 267.506 309.95 268.477 308.59 269.226C307.231 269.975 305.553 270.35 303.556 270.35C301.614 270.35 299.88 270.003 298.355 269.309C296.857 268.588 295.65 267.617 294.735 266.397C293.847 265.149 293.334 263.734 293.195 262.153H297.231C297.314 262.985 297.592 263.803 298.063 264.608C298.563 265.384 299.256 266.036 300.144 266.563C301.059 267.063 302.155 267.312 303.431 267.312C305.095 267.312 306.371 266.868 307.259 265.981C308.147 265.093 308.59 263.956 308.59 262.569C308.59 261.376 308.271 260.405 307.633 259.656C307.023 258.907 306.26 258.325 305.345 257.909C304.43 257.465 303.181 256.993 301.6 256.494C299.742 255.884 298.244 255.315 297.106 254.788C295.997 254.233 295.04 253.415 294.235 252.333C293.459 251.251 293.07 249.823 293.07 248.047C293.07 246.522 293.431 245.176 294.152 244.011C294.901 242.846 295.955 241.945 297.314 241.307C298.701 240.669 300.324 240.35 302.183 240.35C305.068 240.35 307.356 241.057 309.048 242.472C310.74 243.859 311.725 245.634 312.002 247.798H307.925C307.703 246.633 307.106 245.606 306.135 244.719C305.165 243.831 303.847 243.387 302.183 243.387C300.657 243.387 299.436 243.789 298.521 244.594C297.606 245.37 297.148 246.48 297.148 247.922C297.148 249.06 297.439 249.989 298.022 250.71C298.632 251.404 299.381 251.958 300.269 252.375C301.156 252.763 302.377 253.207 303.93 253.706C305.816 254.316 307.328 254.899 308.466 255.454C309.631 256.008 310.615 256.854 311.42 257.992C312.224 259.101 312.626 260.585 312.626 262.444Z" fill="#004C84"/>
<path d="M302.686 236.338V240.338" stroke="#004C84" stroke-width="2" stroke-linecap="round" stroke-linejoin="round"/>
<path d="M302.686 270.338V274.338" stroke="#004C84" stroke-width="2" stroke-linecap="round" stroke-linejoin="round"/>
<path d="M319.643 223.966C305.986 216.525 288.528 218.582 276.972 230.138C262.913 244.197 262.913 266.991 276.972 281.05C291.031 295.108 313.825 295.108 327.884 281.05C340.892 268.042 341.864 247.556 330.801 233.43M327.884 230.138C327.545 229.8 327.202 229.47 326.854 229.148" stroke="#004C84" stroke-width="2" stroke-linecap="round" stroke-linejoin="round"/>
<path d="M276.971 230.137L262.829 215.995" stroke="#004C84" stroke-width="2" stroke-linecap="round" stroke-linejoin="round"/>
<path d="M262.828 221.651V215.994H268.484" stroke="#004C84" stroke-width="2" stroke-linecap="round" stroke-linejoin="round"/>
<path d="M270 163.167L260 163.167" stroke="#36A7BD" stroke-width="2" stroke-linecap="round" stroke-linejoin="round"/>
<path d="M140 163.167L130 163.167" stroke="#36A7BD" stroke-width="2" stroke-linecap="round" stroke-linejoin="round"/>
<g opacity="0.4">
<path d="M267.615 181.284L257.956 178.696" stroke="#36A7BD" stroke-width="2" stroke-linecap="round" stroke-linejoin="round"/>
<path d="M142.045 147.638L132.386 145.05" stroke="#36A7BD" stroke-width="2" stroke-linecap="round" stroke-linejoin="round"/>
</g>
<g opacity="0.4">
<path d="M267.615 145.05L257.956 147.638" stroke="#36A7BD" stroke-width="2" stroke-linecap="round" stroke-linejoin="round"/>
<path d="M142.045 178.696L132.386 181.284" stroke="#36A7BD" stroke-width="2" stroke-linecap="round" stroke-linejoin="round"/>
</g>
</svg>
