<svg width="1267" height="288" viewBox="0 0 1267 288" fill="none" xmlns="http://www.w3.org/2000/svg">
<circle cx="77.902" cy="2.77841" r="2.71775" transform="rotate(-91.2897 77.902 2.77841)" fill="#004C84"/>
<circle cx="202.778" cy="90.7784" r="2.71775" transform="rotate(-91.2897 202.778 90.7784)" fill="#004C84"/>
<circle cx="1187.13" cy="24.1278" r="5.82" transform="rotate(-105 1187.13 24.1278)" fill="#55DCE9"/>
<circle cx="1259.13" cy="143.128" r="5.82" transform="rotate(-105 1259.13 143.128)" fill="#55DCE9"/>
<circle cx="79.1271" cy="280.128" r="5.82" transform="rotate(-105 79.1271 280.128)" fill="#004C84"/>
<circle cx="7.12805" cy="151.128" r="5.82" transform="rotate(-105 7.12805 151.128)" fill="#004C84"/>
<circle cx="1180.22" cy="217.579" r="2.71775" transform="rotate(156.318 1180.22 217.579)" fill="#004C84"/>
<circle cx="1119.9" cy="226.778" r="2.71775" transform="rotate(-91.2897 1119.9 226.778)" fill="#55DCE9"/>
<circle cx="1035.78" cy="44.7784" r="2.71775" transform="rotate(-91.2897 1035.78 44.7784)" fill="#55DCE9"/>
<circle r="5.83405" transform="matrix(-0.858992 0.51199 0.51199 0.858992 139.999 178.998)" fill="#55DCE9"/>
<circle r="5.83405" transform="matrix(-0.858992 0.51199 0.51199 0.858992 1085 108.998)" fill="#004C84"/>
<circle r="5.83405" transform="matrix(-0.955864 0.293809 0.293809 0.955864 52.2899 26.2008)" fill="#55DCE9"/>
<circle r="5.83405" transform="matrix(0.635782 0.771868 0.771868 -0.635782 1164.99 264.747)" fill="#004C84"/>
</svg>
