<svg width="190" height="190" viewBox="0 0 190 190" fill="none" xmlns="http://www.w3.org/2000/svg">
<circle cx="95" cy="95" r="95" fill="#D7F1F5"/>
<path opacity="0.15" d="M46.8828 86.4619C46.8828 83.7005 49.1214 81.4619 51.8828 81.4619H141.286C144.047 81.4619 146.286 83.7005 146.286 86.4619V134.607C146.286 137.368 144.047 139.607 141.286 139.607H51.8828C49.1214 139.607 46.8828 137.368 46.8828 134.607V86.4619Z" fill="#72949B"/>
<path opacity="0.4" d="M114.74 145.221H122.866" stroke="#978BE5" stroke-width="2" stroke-linecap="round" stroke-linejoin="round"/>
<path d="M42 81.6006C42 78.8392 44.2386 76.6006 47 76.6006H69.3507H84.3466C85.8379 76.6006 87.2513 75.9349 88.2012 74.7853L102.552 57.4159C103.502 56.2662 104.916 55.6006 106.407 55.6006H136.403C139.164 55.6006 141.403 57.8392 141.403 60.6006V128.745C141.403 131.507 139.164 133.745 136.403 133.745H47C44.2386 133.745 42 131.507 42 128.745V81.6006Z" fill="#E7F1F3" stroke="#72949B" stroke-width="2"/>
<path d="M140.475 127.954L131.403 71.3457H32L41.3255 129.537C41.7141 131.962 43.8065 133.746 46.2625 133.746H135.538C138.615 133.746 140.962 130.993 140.475 127.954Z" fill="#D5E0E2"/>
<path d="M33.0016 76.7821C32.5209 73.7466 34.8667 71 37.9401 71H131.489L140.573 128.363C141.054 131.398 138.708 134.145 135.635 134.145H46.3564C43.8969 134.145 41.8027 132.356 41.418 129.927L33.0016 76.7821Z" stroke="#72949B" stroke-width="2"/>
<path opacity="0.15" d="M30.4258 44.0419C30.4258 42.1408 31.967 40.5996 33.8681 40.5996H60.8244C62.7255 40.5996 64.2667 42.1408 64.2667 44.0419V58.7861C64.2667 60.6872 62.7255 62.2284 60.8244 62.2284H38.1432C37.2634 62.2284 36.417 62.5652 35.7778 63.1698L32.3617 66.4007C31.6301 67.0926 30.4258 66.5739 30.4258 65.567V44.0419Z" fill="#72949B"/>
<path d="M25.8359 39.4521C25.8359 37.5509 27.3771 36.0098 29.2782 36.0098H56.2346C58.1357 36.0098 59.6769 37.5509 59.6769 39.4521V54.1962C59.6769 56.0974 58.1357 57.6385 56.2346 57.6385H33.5533C32.6735 57.6385 31.8272 57.9754 31.188 58.5799L27.7718 61.8108C27.0403 62.5027 25.8359 61.9841 25.8359 60.9772V39.4521Z" fill="#D7F1F5" stroke="#36A7BD" stroke-width="2" stroke-linecap="round" stroke-linejoin="round"/>
<path opacity="0.4" d="M32.6094 49.0684H49.6735" stroke="#36A7BD" stroke-width="2" stroke-linecap="round" stroke-linejoin="round"/>
<path d="M32.6094 43.5459H38.9198" stroke="#36A7BD" stroke-width="2" stroke-linecap="round" stroke-linejoin="round"/>
<path opacity="0.15" d="M145.352 129.008C145.352 126.342 143.191 124.182 140.525 124.182H102.732C100.067 124.182 97.9061 126.342 97.9061 129.008V149.679C97.9061 152.345 100.067 154.506 102.732 154.506H134.532C135.765 154.506 136.952 154.978 137.848 155.825L142.637 160.355C143.663 161.325 145.352 160.598 145.352 159.186V129.008Z" fill="#72949B"/>
<path d="M151.785 122.573C151.785 119.908 149.624 117.747 146.959 117.747H109.166C106.5 117.747 104.34 119.908 104.34 122.573V143.245C104.34 145.91 106.5 148.071 109.166 148.071H140.965C142.199 148.071 143.385 148.543 144.281 149.391L149.071 153.921C150.097 154.891 151.785 154.163 151.785 152.752V122.573Z" fill="#D7F1F5" stroke="#36A7BD" stroke-width="2" stroke-linecap="round" stroke-linejoin="round"/>
<path opacity="0.4" d="M142.287 136.056H118.363" stroke="#36A7BD" stroke-width="2" stroke-linecap="round" stroke-linejoin="round"/>
<path d="M142.287 128.312H133.44" stroke="#36A7BD" stroke-width="2" stroke-linecap="round" stroke-linejoin="round"/>
</svg>
