<svg width="190" height="190" viewBox="0 0 190 190" fill="none" xmlns="http://www.w3.org/2000/svg">
<circle cx="95" cy="95" r="95" fill="#D7F1F5"/>
<path d="M81.8451 33.4753C81.8451 31.5346 83.4183 29.9613 85.3591 29.9613C87.2998 29.9613 88.873 31.5346 88.873 33.4753C88.873 35.416 87.2998 36.9893 85.3591 36.9893" stroke="#A4DBE5" stroke-width="2" stroke-linecap="round" stroke-linejoin="round"/>
<path opacity="0.4" d="M155.578 152.264C155.578 150.324 157.151 148.75 159.091 148.75C161.032 148.75 162.605 150.324 162.605 152.264C162.605 154.205 161.032 155.778 159.091 155.778" stroke="#72949B" stroke-width="2" stroke-linecap="round" stroke-linejoin="round"/>
<path opacity="0.4" d="M55.114 153.603C55.3499 155.53 53.9796 157.282 52.0532 157.518C50.1269 157.754 48.3741 156.384 48.1381 154.458C47.9022 152.531 49.2725 150.778 51.1989 150.543" stroke="#97D3DF" stroke-width="2" stroke-linecap="round" stroke-linejoin="round"/>
<rect opacity="0.1" x="41.6484" y="65.9736" width="108.832" height="77.7373" rx="5" fill="#2D438F"/>
<path opacity="0.4" d="M59.7852 50.4424H67.8688" stroke="#72949B" stroke-width="2" stroke-linecap="round" stroke-linejoin="round"/>
<path opacity="0.4" d="M119.098 149.297H127.181" stroke="#72949B" stroke-width="2" stroke-linecap="round" stroke-linejoin="round"/>
<rect x="36.7891" y="60.1436" width="108.832" height="77.7373" rx="5" fill="#E7F1F3" stroke="#72949B" stroke-width="2"/>
<path d="M145.621 132.88V70.832H123.272H36.7891V132.88C36.7891 135.642 39.0276 137.88 41.7891 137.88H140.621C143.383 137.88 145.621 135.642 145.621 132.88Z" fill="#D5E0E2"/>
<rect opacity="0.1" x="92.5586" y="53.7236" width="73.7308" height="55.9808" rx="10" fill="#2D438F"/>
<path d="M145.621 70.832V132.88C145.621 135.642 143.383 137.88 140.621 137.88H41.7891C39.0276 137.88 36.7891 135.642 36.7891 132.88V70.832H123.272M132.503 70.832H134.932" stroke="#72949B" stroke-width="2" stroke-linecap="round" stroke-linejoin="round"/>
<path d="M47.8613 110.255H68.4075" stroke="#72949B" stroke-width="2" stroke-linecap="round" stroke-linejoin="round"/>
<path d="M47.8613 121.669H87.8122" stroke="#72949B" stroke-width="2" stroke-linecap="round" stroke-linejoin="round"/>
<circle cx="43.254" cy="65.7842" r="1.17778" fill="#72949B"/>
<circle cx="47.4727" cy="65.7842" r="1.17778" fill="#72949B"/>
<circle cx="51.6934" cy="65.7842" r="1.17778" fill="#72949B"/>
<rect x="88.6738" y="47.7119" width="73.7308" height="55.9808" rx="10" fill="#D7F1F5"/>
<path d="M88.6738 57.7119C88.6738 52.1891 93.151 47.7119 98.6738 47.7119H152.405C157.927 47.7119 162.405 52.1891 162.405 57.7119V65.4619H88.6738V57.7119Z" fill="#EEFDFF"/>
<rect x="88.6738" y="47.7119" width="73.7308" height="55.9808" rx="10" stroke="#36A7BD" stroke-width="2" stroke-linecap="round" stroke-linejoin="round"/>
<path d="M113.25 47.0285V41.7881C113.25 39.0267 115.489 36.7881 118.25 36.7881H132.827C135.588 36.7881 137.827 39.0267 137.827 41.7881V47.0285" stroke="#36A7BD" stroke-width="2" stroke-linecap="round" stroke-linejoin="round"/>
<path opacity="0.4" d="M88.6738 65.4619H161.722" stroke="#36A7BD" stroke-width="2" stroke-linecap="round" stroke-linejoin="round"/>
<path opacity="0.4" d="M99.5957 94.1348H106.423" stroke="#36A7BD" stroke-width="2" stroke-linecap="round" stroke-linejoin="round"/>
<rect x="105.057" y="60" width="5.46154" height="10.9231" rx="2.73077" fill="#D7F1F5" stroke="#36A7BD" stroke-width="2" stroke-linecap="round" stroke-linejoin="round"/>
<rect x="140.559" y="60" width="5.46154" height="10.9231" rx="2.73077" fill="#D7F1F5" stroke="#36A7BD" stroke-width="2" stroke-linecap="round" stroke-linejoin="round"/>
</svg>
