<svg width="190" height="190" viewBox="0 0 190 190" fill="none" xmlns="http://www.w3.org/2000/svg">
<circle cx="95" cy="95" r="95" fill="#D7F1F5"/>
<path opacity="0.1" d="M66.2813 86.9678H128.101C131.988 86.9678 135.14 90.1195 135.14 94.0072V127.827C135.14 131.715 131.988 134.867 128.101 134.867H67.3767C61.5451 134.867 56.8176 130.139 56.8176 124.308L56.8174 77.5039C56.8174 82.7307 61.0545 86.9678 66.2813 86.9678Z" fill="#72949B"/>
<path d="M61.2813 98.1109H107.659C111.547 98.1109 114.699 94.9593 114.699 91.0715V68.9838C114.699 65.096 111.547 61.9443 107.659 61.9443H62.3767C56.5451 61.9443 51.8176 66.6718 51.8176 72.5034L51.8174 107.575C51.8174 102.348 56.0545 98.1109 61.2813 98.1109Z" fill="#E7F1F3"/>
<path d="M62.0508 70.8477H82.5464" stroke="#004C84" stroke-width="2" stroke-linecap="round" stroke-linejoin="round"/>
<path opacity="0.4" d="M62.0508 76.3838H74.328" stroke="#004C84" stroke-width="2" stroke-linecap="round" stroke-linejoin="round"/>
<path opacity="0.4" d="M89.1934 70.8477H97.5021" stroke="#004C84" stroke-width="2" stroke-linecap="round" stroke-linejoin="round"/>
<path d="M80.2197 61.9443H62.3767C56.5451 61.9443 51.8176 66.6718 51.8176 72.5034L51.8174 107.575C51.8174 102.348 56.0545 98.1109 61.2813 98.1109H107.659C111.547 98.1109 114.699 94.9593 114.699 91.0715V68.9838C114.699 65.096 111.547 61.9443 107.659 61.9443H92.1428" stroke="#004C84" stroke-width="2" stroke-linecap="round"/>
<path d="M61.2813 81.9678H123.101C126.988 81.9678 130.14 85.1195 130.14 89.0072V122.827C130.14 126.715 126.988 129.867 123.101 129.867H62.3767C56.5451 129.867 51.8176 125.139 51.8176 119.308L51.8174 72.5039C51.8174 77.7307 56.0545 81.9678 61.2813 81.9678Z" fill="#D5E0E2"/>
<path d="M109.897 106.686C109.897 101.452 114.14 97.209 119.374 97.209H130.141V116.163H119.374C114.14 116.163 109.897 111.92 109.897 106.686Z" fill="#E7F1F3"/>
<path d="M130.14 97.1248V89.0072C130.14 85.1195 126.988 81.9678 123.101 81.9678H61.2813C56.0545 81.9678 51.8174 77.7307 51.8174 72.5039L51.8176 119.308C51.8176 125.139 56.5451 129.867 62.3767 129.867H75.985M130.14 108.427V110.008M130.14 116.859V122.827C130.14 126.715 126.988 129.867 123.101 129.867H100.546" stroke="#004C84" stroke-width="2" stroke-linecap="round" stroke-linejoin="round"/>
<circle cx="117.419" cy="107.019" r="2.59913" fill="#004C84"/>
<circle cx="106.362" cy="56.5563" r="17.4225" fill="#D7F1F5" stroke="#36A7BD" stroke-width="2" stroke-linecap="round" stroke-linejoin="round"/>
<path d="M102.866 61.6676C105.799 63.361 109.549 62.3561 111.243 59.4231C112.253 57.6732 112.303 55.6322 111.555 53.9109M108.998 51.0465C106.065 49.3532 102.315 50.3581 100.621 53.291C99.6391 54.9925 99.5648 56.969 100.248 58.6594" stroke="#36A7BD" stroke-width="2" stroke-linecap="round" stroke-linejoin="round"/>
<circle cx="113.325" cy="50.2903" r="1.41141" fill="#36A7BD"/>
<circle cx="98.9671" cy="62.3108" r="1.41141" fill="#36A7BD"/>
<path d="M75.3779 136.663L92.4756 119.565H86.9405" stroke="#36A7BD" stroke-width="2" stroke-linecap="round" stroke-linejoin="round"/>
<path d="M98.9785 125.069L81.8809 142.167L87.416 142.167" stroke="#36A7BD" stroke-width="2" stroke-linecap="round" stroke-linejoin="round"/>
<circle opacity="0.4" cx="135.068" cy="68.3421" r="2.50517" stroke="#72949B" stroke-width="2" stroke-linecap="round" stroke-linejoin="round"/>
<circle opacity="0.4" cx="59.3226" cy="141.652" r="2.50517" stroke="#72949B" stroke-width="2" stroke-linecap="round" stroke-linejoin="round"/>
</svg>
