<svg width="190" height="190" viewBox="0 0 190 190" fill="none" xmlns="http://www.w3.org/2000/svg">
<circle cx="95" cy="95" r="95" fill="#D7F1F5"/>
<rect opacity="0.1" x="46.7969" y="62.4619" width="109.403" height="78.1448" rx="5" fill="#72949B"/>
<path opacity="0.4" d="M65.0312 46.8486H73.1573" stroke="#72949B" stroke-width="2" stroke-linecap="round" stroke-linejoin="round"/>
<path opacity="0.4" d="M124.654 146.221H132.78" stroke="#72949B" stroke-width="2" stroke-linecap="round" stroke-linejoin="round"/>
<rect x="41.9141" y="56.6006" width="109.403" height="78.1448" rx="5" fill="#E7F1F3" stroke="#72949B" stroke-width="2"/>
<path d="M151.317 129.746V67.3457H128.85H41.9141V129.746C41.9141 132.507 44.1526 134.746 46.9141 134.746H146.317C149.078 134.746 151.317 132.507 151.317 129.746Z" fill="#D5E0E2"/>
<path d="M151.317 67.3457V129.746C151.317 132.507 149.078 134.746 146.317 134.746H46.9141C44.1526 134.746 41.9141 132.507 41.9141 129.746V67.3457H128.85M138.13 67.3457H140.572" stroke="#72949B" stroke-width="2" stroke-linecap="round" stroke-linejoin="round"/>
<circle cx="48.4125" cy="62.2709" r="1.18396" fill="#72949B"/>
<circle cx="52.6547" cy="62.2709" r="1.18396" fill="#72949B"/>
<circle cx="56.8968" cy="62.2709" r="1.18396" fill="#72949B"/>
<path opacity="0.1" d="M36.4258 113.042C36.4258 111.141 37.967 109.6 39.8681 109.6H66.8244C68.7255 109.6 70.2667 111.141 70.2667 113.042V127.786C70.2667 129.687 68.7255 131.228 66.8244 131.228H44.1432C43.2634 131.228 42.417 131.565 41.7778 132.17L38.3617 135.401C37.6301 136.093 36.4258 135.574 36.4258 134.567V113.042Z" fill="#72949B"/>
<path d="M31.8359 108.452C31.8359 106.551 33.3771 105.01 35.2782 105.01H62.2346C64.1357 105.01 65.6769 106.551 65.6769 108.452V123.196C65.6769 125.097 64.1357 126.639 62.2346 126.639H39.5533C38.6735 126.639 37.8272 126.975 37.188 127.58L33.7718 130.811C33.0403 131.503 31.8359 130.984 31.8359 129.977V108.452Z" fill="#D7F1F5" stroke="#36A7BD" stroke-width="2" stroke-linecap="round" stroke-linejoin="round"/>
<path opacity="0.4" d="M38.6094 118.068H55.6735" stroke="#36A7BD" stroke-width="2" stroke-linecap="round" stroke-linejoin="round"/>
<path d="M38.6094 112.546H44.9198" stroke="#36A7BD" stroke-width="2" stroke-linecap="round" stroke-linejoin="round"/>
<path opacity="0.1" d="M135.352 95.0078C135.352 92.3424 133.191 90.1816 130.525 90.1816H92.7322C90.0668 90.1816 87.9061 92.3424 87.9061 95.0078V115.679C87.9061 118.345 90.0668 120.506 92.7322 120.506H124.532C125.765 120.506 126.952 120.978 127.848 121.825L132.637 126.355C133.663 127.325 135.352 126.598 135.352 125.186V95.0078Z" fill="#72949B"/>
<path d="M141.785 88.5732C141.785 85.9078 139.624 83.7471 136.959 83.7471H99.1658C96.5004 83.7471 94.3397 85.9078 94.3397 88.5732V109.245C94.3397 111.91 96.5004 114.071 99.1658 114.071H130.965C132.199 114.071 133.385 114.543 134.281 115.391L139.071 119.921C140.097 120.891 141.785 120.163 141.785 118.752V88.5732Z" fill="#D7F1F5" stroke="#36A7BD" stroke-width="2" stroke-linecap="round" stroke-linejoin="round"/>
<path opacity="0.4" d="M132.287 102.056H108.363" stroke="#36A7BD" stroke-width="2" stroke-linecap="round" stroke-linejoin="round"/>
<path d="M132.287 94.3125H123.44" stroke="#36A7BD" stroke-width="2" stroke-linecap="round" stroke-linejoin="round"/>
<circle cx="151.318" cy="87.7377" r="15.89" fill="#D7F1F5" stroke="#36A7BD" stroke-width="2" stroke-linecap="round" stroke-linejoin="round"/>
<circle cx="151.317" cy="84.714" r="4.71981" fill="#D7F1F5" stroke="#36A7BD" stroke-width="2" stroke-linecap="round" stroke-linejoin="round"/>
<path d="M156.037 94.3126C156.037 91.7059 153.924 89.5928 151.317 89.5928C148.711 89.5928 146.598 91.7059 146.598 94.3126" stroke="#36A7BD" stroke-width="2" stroke-linecap="round" stroke-linejoin="round"/>
</svg>
