<svg width="156" height="156" viewBox="0 0 156 156" fill="none" xmlns="http://www.w3.org/2000/svg">
<circle cx="78" cy="78" r="78" fill="white"/>
<circle opacity="0.1" cx="79.5" cy="85.5" r="44.5" fill="#72949B"/>
<circle cx="78.5" cy="78.5" r="44.5" fill="#E7F1F3"/>
<path d="M82.0723 52.7193C78.4458 46.6393 83.7567 40.4278 88.059 37.1314C89.1868 36.2674 90.6693 36.0836 92.0338 36.4793L97.8622 38.1699C98.4105 38.329 98.9275 38.5807 99.3908 38.9143L107.302 44.6106C107.603 44.8273 107.879 45.0767 108.125 45.3543L114.27 52.2973C114.519 52.5778 114.735 52.8852 114.914 53.2139L119.74 62.0472C119.971 62.469 120.144 62.9258 120.231 63.3986C121.943 72.7356 116.132 74.4791 111.197 74.18C106.139 73.8734 106.598 91.5017 102 91.5017C95.8681 91.5017 96.9411 86.1366 92.8023 82.7642C88.6635 79.3918 87.7437 78.7787 90.6562 68.8148C93.5688 58.8509 87.2839 61.4569 82.0723 52.7193Z" fill="#D5E0E2"/>
<path d="M89.8897 35.8574C85.5467 38.5655 77.903 45.7293 82.0723 52.7193C87.2839 61.4569 93.5688 58.8509 90.6562 68.8148C87.7437 78.7787 88.6635 79.3918 92.8023 82.7642C96.9411 86.1366 95.8681 91.5017 102 91.5017C106.598 91.5017 106.139 73.8734 111.197 74.18C116.256 74.4865 122.234 72.6471 120.088 62.6832" stroke="#72949B" stroke-width="2" stroke-linecap="round" stroke-linejoin="round"/>
<path d="M78.7606 107.318C81.1347 110.396 81.1286 115.234 80.5395 118.95C80.188 121.168 78.1281 122.583 75.8845 122.49L70.4992 122.269C70.0073 122.248 69.521 122.155 69.0562 121.993L59.6655 118.713C59.3361 118.598 59.0197 118.448 58.7214 118.267L50.8225 113.476C50.4908 113.275 50.1836 113.036 49.9072 112.764L44.6647 107.601C44.4732 107.412 44.2973 107.209 44.1385 106.992L40.8984 102.566C41.5114 102.515 42.9214 101.217 43.6572 96.4341C44.5769 90.4558 47.183 88.1565 51.935 90.4558C56.687 92.7552 58.9867 81.1051 62.6656 86.6236C66.3446 92.142 61.8991 92.4486 65.7314 99.8065C69.5636 107.164 74.6222 101.953 78.7606 107.318Z" fill="#D5E0E2"/>
<path d="M79.6805 122.647C80.0049 121.643 80.3516 120.237 80.5861 118.646M78.7606 107.318C74.6222 101.953 69.5636 107.164 65.7314 99.8065C61.8991 92.4486 66.3446 92.142 62.6656 86.6236C58.9867 81.1051 56.687 92.7552 51.935 90.4558C47.183 88.1565 44.5769 90.4558 43.6572 96.4341C42.9214 101.217 41.5114 102.515 40.8984 102.566M80.6521 112.075C80.6994 112.371 80.7382 112.669 80.7692 112.97" stroke="#72949B" stroke-width="2" stroke-linecap="round" stroke-linejoin="round"/>
<path d="M34 78.5C34 77.9087 34.0115 77.3201 34.0344 76.7343M35.8082 65.9026C41.2413 47.461 58.2987 34 78.5 34C103.077 34 123 53.9233 123 78.5C123 103.077 103.077 123 78.5 123C55.7605 123 37.0046 105.944 34.3276 83.927" stroke="#72949B" stroke-width="2" stroke-linecap="round" stroke-linejoin="round"/>
<path d="M59.1394 63.4761C55.2389 63.3261 52.659 55.0997 60.4556 53.8877C60.7978 53.8345 61.1504 53.7589 61.4836 53.6642C69.4031 51.414 69.2846 59.8722 70.636 63.4761C72.0156 67.1551 68.0301 68.8413 66.3439 65.7755C64.6577 62.7097 63.1245 63.6294 59.1394 63.4761Z" fill="#D5E0E2" stroke="#72949B" stroke-width="2"/>
<path d="M93.1719 106.704C93.1723 103.791 93.9379 100.419 97.3105 100.419C99.3032 100.419 102.89 101.369 101.296 105.171C99.303 109.923 93.1714 109.616 93.1719 106.704Z" fill="#D5E0E2" stroke="#72949B" stroke-width="2"/>
<circle cx="64.3483" cy="92.3483" r="11.3483" fill="#D7F1F5" stroke="#1AAABA" stroke-width="2" stroke-linecap="round" stroke-linejoin="round"/>
<circle cx="64.3473" cy="90.1891" r="3.37078" fill="#D7F1F5" stroke="#1AAABA" stroke-width="2" stroke-linecap="round" stroke-linejoin="round"/>
<path d="M67.7181 97.0436C67.7181 95.182 66.209 93.6729 64.3473 93.6729C62.4857 93.6729 60.9766 95.182 60.9766 97.0436" stroke="#1AAABA" stroke-width="2" stroke-linecap="round" stroke-linejoin="round"/>
<circle cx="100.848" cy="118.848" r="13.8483" fill="#D7F1F5" stroke="#1AAABA" stroke-width="2" stroke-linecap="round" stroke-linejoin="round"/>
<circle cx="100.848" cy="116.213" r="4.11335" fill="#D7F1F5" stroke="#1AAABA" stroke-width="2" stroke-linecap="round" stroke-linejoin="round"/>
<path d="M104.961 124.578C104.961 122.306 103.119 120.465 100.848 120.465C98.576 120.465 96.7344 122.306 96.7344 124.578" stroke="#1AAABA" stroke-width="2" stroke-linecap="round" stroke-linejoin="round"/>
<path d="M94.9199 35.459C94.9199 47.6243 82.5473 52.6 78.4609 63.5242C74.0056 52.6 62.002 47.2096 62.002 35.459C62.002 26.3689 69.3709 19 78.4609 19C87.5509 19 94.9199 26.3689 94.9199 35.459Z" fill="#D7F1F5" stroke="#1AAABA" stroke-width="2" stroke-linecap="round" stroke-linejoin="round"/>
<circle cx="78.502" cy="32.5" r="4.5" fill="#D7F1F5" stroke="#1AAABA" stroke-width="2" stroke-linecap="round" stroke-linejoin="round"/>
<path d="M83.002 42C83.002 39.7909 80.9872 38 78.502 38C76.0167 38 74.002 39.7909 74.002 42" stroke="#1AAABA" stroke-width="2" stroke-linecap="round" stroke-linejoin="round"/>
</svg>
