<svg width="319" height="319" viewBox="0 0 319 319" fill="none" xmlns="http://www.w3.org/2000/svg">
<circle cx="159.5" cy="159.5" r="159.5" fill="#EFF9FB"/>
<circle cx="168.228" cy="168.229" r="98.398" fill="#D5E0E2"/>
<circle cx="159.5" cy="159.5" r="100.779" fill="#E7F1F3"/>
<circle opacity="0.4" cx="88.549" cy="121.877" r="6.02169" stroke="#72949B" stroke-width="2" stroke-linecap="round" stroke-linejoin="round"/>
<path d="M235.931 144.152C235.931 146.632 233.92 148.643 231.44 148.643C228.961 148.643 226.95 146.632 226.95 144.152C226.95 141.672 228.961 139.662 231.44 139.662" stroke="#36A7BD" stroke-width="2" stroke-linecap="round" stroke-linejoin="round"/>
<path d="M82.1744 242.822C84.6538 242.776 86.701 244.749 86.7467 247.229C86.7925 249.708 84.8196 251.755 82.3401 251.801C79.8606 251.847 77.8135 249.874 77.7677 247.394" stroke="#72949B" stroke-width="2" stroke-linecap="round" stroke-linejoin="round"/>
<circle cx="159.501" cy="159.5" r="100.199" stroke="#72949B" stroke-width="2" stroke-linecap="round" stroke-linejoin="round" stroke-dasharray="1 5"/>
<rect x="112.468" y="122.448" width="100.199" height="100.199" rx="10" fill="#D5E0E2"/>
<rect x="106.333" y="114.269" width="100.199" height="100.199" rx="10" fill="#D7F1F5"/>
<circle cx="155.532" cy="163.011" r="28.5672" fill="#F3F5FC"/>
<path d="M206.533 145.674V124.269C206.533 118.746 202.056 114.269 196.533 114.269H116.334C110.811 114.269 106.334 118.746 106.334 124.269V204.467C106.334 209.99 110.811 214.467 116.334 214.467H196.533C202.056 214.467 206.533 209.99 206.533 204.467V182.314M206.533 165.863V170.35" stroke="#36A7BD" stroke-width="2" stroke-linecap="round" stroke-linejoin="round"/>
<path opacity="0.4" d="M165.055 153.487L146.01 172.532" stroke="#36A7BD" stroke-width="2" stroke-linecap="round" stroke-linejoin="round"/>
<path d="M146.566 162.201L138.074 156.257L146.566 150.313" stroke="#36A7BD" stroke-width="2" stroke-linecap="round" stroke-linejoin="round"/>
<path d="M163.468 179.659L171.959 173.715L163.468 167.771" stroke="#36A7BD" stroke-width="2" stroke-linecap="round" stroke-linejoin="round"/>
<circle cx="158.764" cy="58.9572" r="30.0832" fill="#D5E0E2"/>
<circle cx="158.764" cy="58.9579" r="18.6229" fill="#E7F1F3"/>
<path d="M137.213 80.1747C134.986 77.8221 133.185 75.1521 131.842 72.2862C127.811 63.6815 127.911 53.31 133.022 44.4567C141.329 30.0681 159.728 25.1383 174.117 33.4455C188.505 41.7527 193.435 60.1514 185.128 74.5399C180.537 82.4915 172.864 87.5543 164.49 89.0908C162.178 89.5151 159.812 89.6705 157.443 89.5437" stroke="#72949B" stroke-width="2" stroke-linecap="round" stroke-linejoin="round"/>
<path d="M145.104 85.9434C145.544 86.13 146.687 86.6153 147.742 87.0632" stroke="#72949B" stroke-width="2" stroke-linecap="round" stroke-linejoin="round"/>
<circle cx="158.925" cy="56.2548" r="5.89252" stroke="#978BE5" stroke-width="2" stroke-linecap="round" stroke-linejoin="round"/>
<circle cx="158.925" cy="56.2548" r="5.89252" stroke="#978BE5" stroke-width="2" stroke-linecap="round" stroke-linejoin="round"/>
<circle cx="158.925" cy="56.2548" r="5.89252" fill="#E7F1F3"/>
<circle cx="158.925" cy="56.2548" r="5.89252" stroke="#72949B" stroke-width="2" stroke-linecap="round" stroke-linejoin="round"/>
<path d="M164.817 68.2382C164.817 64.9839 162.179 62.3457 158.925 62.3457C155.67 62.3457 153.032 64.9839 153.032 68.2382" stroke="#72949B" stroke-width="2" stroke-linecap="round" stroke-linejoin="round"/>
<circle r="30.0832" transform="matrix(-1 0 0 1 253.839 195.718)" fill="#D5E0E2"/>
<circle r="18.6229" transform="matrix(-1 0 0 1 253.839 195.718)" fill="#F3F5FC"/>
<path d="M282.676 187.123C281.752 184.018 280.34 181.123 278.529 178.528C273.093 170.734 264.061 165.635 253.838 165.635C237.224 165.635 223.755 179.103 223.755 195.718C223.755 212.332 237.224 225.801 253.838 225.801C263.02 225.801 271.241 221.688 276.759 215.203C278.282 213.413 279.6 211.442 280.675 209.327" stroke="#72949B" stroke-width="2" stroke-linecap="round" stroke-linejoin="round"/>
<path d="M283.922 195.718C283.922 196.195 283.922 197.437 283.922 198.583" stroke="#72949B" stroke-width="2" stroke-linecap="round" stroke-linejoin="round"/>
<circle r="5.89252" transform="matrix(-1 0 0 1 253.676 193.016)" stroke="#978BE5" stroke-width="2" stroke-linecap="round" stroke-linejoin="round"/>
<circle r="5.89252" transform="matrix(-1 0 0 1 253.676 193.016)" stroke="#978BE5" stroke-width="2" stroke-linecap="round" stroke-linejoin="round"/>
<circle r="5.89252" transform="matrix(-1 0 0 1 253.676 193.016)" fill="#E7F1F3"/>
<circle r="5.89252" transform="matrix(-1 0 0 1 253.676 193.016)" stroke="#72949B" stroke-width="2" stroke-linecap="round" stroke-linejoin="round"/>
<path d="M247.783 204.999C247.783 201.745 250.421 199.106 253.676 199.106C256.93 199.106 259.568 201.745 259.568 204.999" stroke="#72949B" stroke-width="2" stroke-linecap="round" stroke-linejoin="round"/>
<circle cx="58.7121" cy="195.718" r="30.0832" fill="#D5E0E2"/>
<circle cx="58.7128" cy="195.718" r="18.6229" fill="#E7F1F3"/>
<path d="M29.875 187.123C30.799 184.018 32.2108 181.123 34.0214 178.528C39.4576 170.734 48.4895 165.635 58.7124 165.635C75.3269 165.635 88.7956 179.103 88.7956 195.718C88.7956 212.332 75.3269 225.801 58.7124 225.801C49.5308 225.801 41.3099 221.688 35.7919 215.203C34.2684 213.413 32.951 211.442 31.8762 209.327" stroke="#72949B" stroke-width="2" stroke-linecap="round" stroke-linejoin="round"/>
<path d="M28.6289 195.718C28.6289 196.195 28.6289 197.437 28.6289 198.583" stroke="#72949B" stroke-width="2" stroke-linecap="round" stroke-linejoin="round"/>
<circle cx="58.874" cy="193.016" r="5.89252" stroke="#978BE5" stroke-width="2" stroke-linecap="round" stroke-linejoin="round"/>
<circle cx="58.874" cy="193.016" r="5.89252" stroke="#978BE5" stroke-width="2" stroke-linecap="round" stroke-linejoin="round"/>
<circle cx="58.874" cy="193.016" r="5.89252" fill="#E7F1F3"/>
<circle cx="58.874" cy="193.016" r="5.89252" stroke="#72949B" stroke-width="2" stroke-linecap="round" stroke-linejoin="round"/>
<path d="M64.7665 204.999C64.7665 201.745 62.1283 199.106 58.874 199.106C55.6196 199.106 52.9814 201.745 52.9814 204.999" stroke="#72949B" stroke-width="2" stroke-linecap="round" stroke-linejoin="round"/>
<path opacity="0.4" d="M214 125H221.082" stroke="#36A7BD" stroke-width="2" stroke-linecap="round" stroke-linejoin="round"/>
</svg>
