<svg width="662" height="736" viewBox="0 0 662 736" fill="none" xmlns="http://www.w3.org/2000/svg">
<g filter="url(#filter0_i)">
<path d="M108.524 59.6671C115.966 59.6671 122 53.6339 122 46.1915C122 38.7491 115.966 32.7159 108.524 32.7159C101.082 32.7159 95.0484 38.7491 95.0484 46.1915C95.0484 53.6339 101.082 59.6671 108.524 59.6671Z" fill="url(#paint0_linear)"/>
</g>
<g opacity="0.5" filter="url(#filter1_f)">
<path opacity="0.5" d="M113.981 54.0524C116.995 54.0524 119.438 51.6092 119.438 48.5955C119.438 45.5818 116.995 43.1387 113.981 43.1387C110.967 43.1387 108.524 45.5818 108.524 48.5955C108.524 51.6092 110.967 54.0524 113.981 54.0524Z" fill="#59D3EA"/>
</g>
<g filter="url(#filter2_i)">
<path d="M628.891 480.471C623.628 475.209 615.096 475.209 609.833 480.471C604.571 485.734 604.571 494.266 609.833 499.529C615.096 504.791 623.628 504.791 628.891 499.529C634.153 494.266 634.153 485.734 628.891 480.471Z" fill="url(#paint1_linear)"/>
</g>
<g opacity="0.5" filter="url(#filter3_f)">
<path opacity="0.5" d="M621.063 480.583C618.932 478.452 615.476 478.452 613.345 480.583C611.214 482.714 611.214 486.17 613.345 488.301C615.476 490.432 618.932 490.432 621.063 488.301C623.194 486.17 623.194 482.714 621.063 480.583Z" fill="#59D3EA"/>
</g>
<g filter="url(#filter4_i)">
<path d="M535.708 674.565C522.743 667.08 506.166 671.522 498.681 684.486C491.196 697.451 495.638 714.028 508.602 721.513C521.567 728.998 538.144 724.556 545.629 711.592C553.114 698.627 548.672 682.05 535.708 674.565Z" fill="url(#paint2_linear)"/>
</g>
<g opacity="0.5" filter="url(#filter5_f)">
<path opacity="0.5" d="M520.555 678.858C515.305 675.827 508.592 677.626 505.561 682.876C502.53 688.126 504.329 694.839 509.579 697.87C514.829 700.901 521.542 699.102 524.573 693.852C527.604 688.602 525.805 681.889 520.555 678.858Z" fill="#59D3EA"/>
</g>
<g filter="url(#filter6_i)">
<path d="M656.418 172.527C653.411 170.791 649.565 171.822 647.829 174.829C646.092 177.836 647.123 181.682 650.13 183.418C653.138 185.155 656.983 184.124 658.72 181.117C660.456 178.109 659.426 174.264 656.418 172.527Z" fill="url(#paint3_linear)"/>
</g>
<g opacity="0.8" filter="url(#filter7_f)">
<path opacity="0.8" d="M653.439 173.232C651.885 172.335 649.899 172.867 649.003 174.42C648.106 175.973 648.638 177.96 650.191 178.856C651.744 179.753 653.731 179.221 654.627 177.668C655.524 176.115 654.992 174.128 653.439 173.232Z" fill="#8EE8F9"/>
</g>
<g filter="url(#filter8_i)">
<path d="M377.144 303.855C374.136 302.119 370.291 303.15 368.554 306.157C366.818 309.164 367.849 313.01 370.856 314.747C373.864 316.483 377.709 315.452 379.446 312.445C381.182 309.437 380.151 305.592 377.144 303.855Z" fill="url(#paint4_linear)"/>
</g>
<g opacity="0.8" filter="url(#filter9_f)">
<path opacity="0.8" d="M374.165 304.56C372.611 303.663 370.625 304.195 369.729 305.748C368.832 307.302 369.364 309.288 370.917 310.184C372.471 311.081 374.457 310.549 375.353 308.996C376.25 307.443 375.718 305.456 374.165 304.56Z" fill="#8EE8F9"/>
</g>
<g filter="url(#filter10_i)">
<path d="M14.1575 467.554C15.8939 464.546 14.8635 460.701 11.856 458.964C8.84853 457.228 5.00289 458.259 3.26652 461.266C1.53016 464.274 2.5606 468.119 5.56807 469.856C8.57554 471.592 12.4212 470.561 14.1575 467.554Z" fill="url(#paint5_linear)"/>
</g>
<g opacity="0.8" filter="url(#filter11_f)">
<path opacity="0.8" d="M13.4533 464.576C14.35 463.022 13.8179 461.036 12.2647 460.14C10.7115 459.243 8.72545 459.775 7.82872 461.328C6.93199 462.882 7.46415 464.868 9.01733 465.764C10.5705 466.661 12.5566 466.129 13.4533 464.576Z" fill="#8EE8F9"/>
</g>
<g filter="url(#filter12_i)">
<path d="M329.965 14.7611C332.87 16.6642 336.767 15.8523 338.671 12.9475C340.574 10.0427 339.762 6.14508 336.857 4.24191C333.952 2.33873 330.055 3.15069 328.151 6.05547C326.248 8.96025 327.06 12.8579 329.965 14.7611Z" fill="url(#paint6_linear)"/>
</g>
<g opacity="0.8" filter="url(#filter13_f)">
<path opacity="0.8" d="M332.978 14.2259C334.478 15.2087 336.491 14.7894 337.474 13.2893C338.457 11.7891 338.038 9.77621 336.538 8.79333C335.038 7.81045 333.025 8.22978 332.042 9.72994C331.059 11.2301 331.478 13.243 332.978 14.2259Z" fill="#8EE8F9"/>
</g>
<g filter="url(#filter14_i)">
<path d="M223.858 710.237C226.562 705.554 224.957 699.565 220.273 696.86C215.59 694.156 209.601 695.761 206.896 700.445C204.192 705.128 205.797 711.117 210.481 713.822C215.164 716.526 221.153 714.921 223.858 710.237Z" fill="url(#paint7_linear)"/>
</g>
<g opacity="0.8" filter="url(#filter15_f)">
<path opacity="0.8" d="M222.761 705.598C224.157 703.179 223.328 700.086 220.91 698.689C218.491 697.293 215.398 698.122 214.001 700.54C212.605 702.959 213.433 706.052 215.852 707.449C218.271 708.845 221.364 708.016 222.761 705.598Z" fill="#8EE8F9"/>
</g>
<defs>
<filter id="filter0_i" x="95.0484" y="32.7159" width="27.9512" height="28.9512" filterUnits="userSpaceOnUse" color-interpolation-filters="sRGB">
<feFlood flood-opacity="0" result="BackgroundImageFix"/>
<feBlend mode="normal" in="SourceGraphic" in2="BackgroundImageFix" result="shape"/>
<feColorMatrix in="SourceAlpha" type="matrix" values="0 0 0 0 0 0 0 0 0 0 0 0 0 0 0 0 0 0 127 0" result="hardAlpha"/>
<feOffset dx="1" dy="2"/>
<feGaussianBlur stdDeviation="2"/>
<feComposite in2="hardAlpha" operator="arithmetic" k2="-1" k3="1"/>
<feColorMatrix type="matrix" values="0 0 0 0 0.833333 0 0 0 0 0.977778 0 0 0 0 1 0 0 0 0.3 0"/>
<feBlend mode="normal" in2="shape" result="effect1_innerShadow"/>
</filter>
<filter id="filter1_f" x="102.524" y="37.1387" width="22.9137" height="22.9137" filterUnits="userSpaceOnUse" color-interpolation-filters="sRGB">
<feFlood flood-opacity="0" result="BackgroundImageFix"/>
<feBlend mode="normal" in="SourceGraphic" in2="BackgroundImageFix" result="shape"/>
<feGaussianBlur stdDeviation="3" result="effect1_foregroundBlur"/>
</filter>
<filter id="filter2_i" x="600.305" y="470.943" width="39.1147" height="40.1147" filterUnits="userSpaceOnUse" color-interpolation-filters="sRGB">
<feFlood flood-opacity="0" result="BackgroundImageFix"/>
<feBlend mode="normal" in="SourceGraphic" in2="BackgroundImageFix" result="shape"/>
<feColorMatrix in="SourceAlpha" type="matrix" values="0 0 0 0 0 0 0 0 0 0 0 0 0 0 0 0 0 0 127 0" result="hardAlpha"/>
<feOffset dx="1" dy="2"/>
<feGaussianBlur stdDeviation="2"/>
<feComposite in2="hardAlpha" operator="arithmetic" k2="-1" k3="1"/>
<feColorMatrix type="matrix" values="0 0 0 0 0.833333 0 0 0 0 0.977778 0 0 0 0 1 0 0 0 0.3 0"/>
<feBlend mode="normal" in2="shape" result="effect1_innerShadow"/>
</filter>
<filter id="filter3_f" x="603.487" y="470.725" width="27.4343" height="27.4343" filterUnits="userSpaceOnUse" color-interpolation-filters="sRGB">
<feFlood flood-opacity="0" result="BackgroundImageFix"/>
<feBlend mode="normal" in="SourceGraphic" in2="BackgroundImageFix" result="shape"/>
<feGaussianBlur stdDeviation="3" result="effect1_foregroundBlur"/>
</filter>
<filter id="filter4_i" x="485.128" y="661.012" width="75.0542" height="76.0542" filterUnits="userSpaceOnUse" color-interpolation-filters="sRGB">
<feFlood flood-opacity="0" result="BackgroundImageFix"/>
<feBlend mode="normal" in="SourceGraphic" in2="BackgroundImageFix" result="shape"/>
<feColorMatrix in="SourceAlpha" type="matrix" values="0 0 0 0 0 0 0 0 0 0 0 0 0 0 0 0 0 0 127 0" result="hardAlpha"/>
<feOffset dx="1" dy="2"/>
<feGaussianBlur stdDeviation="2"/>
<feComposite in2="hardAlpha" operator="arithmetic" k2="-1" k3="1"/>
<feColorMatrix type="matrix" values="0 0 0 0 0.833333 0 0 0 0 0.977778 0 0 0 0 1 0 0 0 0.3 0"/>
<feBlend mode="normal" in2="shape" result="effect1_innerShadow"/>
</filter>
<filter id="filter5_f" x="484.073" y="657.37" width="61.9876" height="61.9875" filterUnits="userSpaceOnUse" color-interpolation-filters="sRGB">
<feFlood flood-opacity="0" result="BackgroundImageFix"/>
<feBlend mode="normal" in="SourceGraphic" in2="BackgroundImageFix" result="shape"/>
<feGaussianBlur stdDeviation="8" result="effect1_foregroundBlur"/>
</filter>
<filter id="filter6_i" x="644.685" y="169.383" width="18.1789" height="19.1789" filterUnits="userSpaceOnUse" color-interpolation-filters="sRGB">
<feFlood flood-opacity="0" result="BackgroundImageFix"/>
<feBlend mode="normal" in="SourceGraphic" in2="BackgroundImageFix" result="shape"/>
<feColorMatrix in="SourceAlpha" type="matrix" values="0 0 0 0 0 0 0 0 0 0 0 0 0 0 0 0 0 0 127 0" result="hardAlpha"/>
<feOffset dx="1" dy="2"/>
<feGaussianBlur stdDeviation="2"/>
<feComposite in2="hardAlpha" operator="arithmetic" k2="-1" k3="1"/>
<feColorMatrix type="matrix" values="0 0 0 0 0.833333 0 0 0 0 0.977778 0 0 0 0 1 0 0 0 0.3 0"/>
<feBlend mode="normal" in2="shape" result="effect1_innerShadow"/>
</filter>
<filter id="filter7_f" x="644.379" y="168.608" width="14.872" height="14.872" filterUnits="userSpaceOnUse" color-interpolation-filters="sRGB">
<feFlood flood-opacity="0" result="BackgroundImageFix"/>
<feBlend mode="normal" in="SourceGraphic" in2="BackgroundImageFix" result="shape"/>
<feGaussianBlur stdDeviation="1.5" result="effect1_foregroundBlur"/>
</filter>
<filter id="filter8_i" x="365.411" y="300.712" width="18.179" height="19.179" filterUnits="userSpaceOnUse" color-interpolation-filters="sRGB">
<feFlood flood-opacity="0" result="BackgroundImageFix"/>
<feBlend mode="normal" in="SourceGraphic" in2="BackgroundImageFix" result="shape"/>
<feColorMatrix in="SourceAlpha" type="matrix" values="0 0 0 0 0 0 0 0 0 0 0 0 0 0 0 0 0 0 127 0" result="hardAlpha"/>
<feOffset dx="1" dy="2"/>
<feGaussianBlur stdDeviation="2"/>
<feComposite in2="hardAlpha" operator="arithmetic" k2="-1" k3="1"/>
<feColorMatrix type="matrix" values="0 0 0 0 0.833333 0 0 0 0 0.977778 0 0 0 0 1 0 0 0 0.3 0"/>
<feBlend mode="normal" in2="shape" result="effect1_innerShadow"/>
</filter>
<filter id="filter9_f" x="365.105" y="299.936" width="14.8719" height="14.8719" filterUnits="userSpaceOnUse" color-interpolation-filters="sRGB">
<feFlood flood-opacity="0" result="BackgroundImageFix"/>
<feBlend mode="normal" in="SourceGraphic" in2="BackgroundImageFix" result="shape"/>
<feGaussianBlur stdDeviation="1.5" result="effect1_foregroundBlur"/>
</filter>
<filter id="filter10_i" x="2.42307" y="458.121" width="13.578" height="14.578" filterUnits="userSpaceOnUse" color-interpolation-filters="sRGB">
<feFlood flood-opacity="0" result="BackgroundImageFix"/>
<feBlend mode="normal" in="SourceGraphic" in2="BackgroundImageFix" result="shape"/>
<feColorMatrix in="SourceAlpha" type="matrix" values="0 0 0 0 0 0 0 0 0 0 0 0 0 0 0 0 0 0 127 0" result="hardAlpha"/>
<feOffset dx="1" dy="2"/>
<feGaussianBlur stdDeviation="2"/>
<feComposite in2="hardAlpha" operator="arithmetic" k2="-1" k3="1"/>
<feColorMatrix type="matrix" values="0 0 0 0 0.833333 0 0 0 0 0.977778 0 0 0 0 1 0 0 0 0.3 0"/>
<feBlend mode="normal" in2="shape" result="effect1_innerShadow"/>
</filter>
<filter id="filter11_f" x="4.39313" y="456.704" width="12.4958" height="12.4958" filterUnits="userSpaceOnUse" color-interpolation-filters="sRGB">
<feFlood flood-opacity="0" result="BackgroundImageFix"/>
<feBlend mode="normal" in="SourceGraphic" in2="BackgroundImageFix" result="shape"/>
<feGaussianBlur stdDeviation="1.5" result="effect1_foregroundBlur"/>
</filter>
<filter id="filter12_i" x="324.705" y="0.795898" width="18.4112" height="19.4112" filterUnits="userSpaceOnUse" color-interpolation-filters="sRGB">
<feFlood flood-opacity="0" result="BackgroundImageFix"/>
<feBlend mode="normal" in="SourceGraphic" in2="BackgroundImageFix" result="shape"/>
<feColorMatrix in="SourceAlpha" type="matrix" values="0 0 0 0 0 0 0 0 0 0 0 0 0 0 0 0 0 0 127 0" result="hardAlpha"/>
<feOffset dx="1" dy="2"/>
<feGaussianBlur stdDeviation="2"/>
<feComposite in2="hardAlpha" operator="arithmetic" k2="-1" k3="1"/>
<feColorMatrix type="matrix" values="0 0 0 0 0.833333 0 0 0 0 0.977778 0 0 0 0 1 0 0 0 0.3 0"/>
<feBlend mode="normal" in2="shape" result="effect1_innerShadow"/>
</filter>
<filter id="filter13_f" x="327.262" y="4.01367" width="14.9918" height="14.9918" filterUnits="userSpaceOnUse" color-interpolation-filters="sRGB">
<feFlood flood-opacity="0" result="BackgroundImageFix"/>
<feBlend mode="normal" in="SourceGraphic" in2="BackgroundImageFix" result="shape"/>
<feGaussianBlur stdDeviation="1.5" result="effect1_foregroundBlur"/>
</filter>
<filter id="filter14_i" x="202" y="691.964" width="28.3109" height="29.8683" filterUnits="userSpaceOnUse" color-interpolation-filters="sRGB">
<feFlood flood-opacity="0" result="BackgroundImageFix"/>
<feBlend mode="normal" in="SourceGraphic" in2="BackgroundImageFix" result="shape"/>
<feColorMatrix in="SourceAlpha" type="matrix" values="0 0 0 0 0 0 0 0 0 0 0 0 0 0 0 0 0 0 127 0" result="hardAlpha"/>
<feOffset dx="1.55735" dy="3.11469"/>
<feGaussianBlur stdDeviation="3.11469"/>
<feComposite in2="hardAlpha" operator="arithmetic" k2="-1" k3="1"/>
<feColorMatrix type="matrix" values="0 0 0 0 0.833333 0 0 0 0 0.977778 0 0 0 0 1 0 0 0 0.3 0"/>
<feBlend mode="normal" in2="shape" result="effect1_innerShadow"/>
</filter>
<filter id="filter15_f" x="206.801" y="691.489" width="23.1608" height="23.1608" filterUnits="userSpaceOnUse" color-interpolation-filters="sRGB">
<feFlood flood-opacity="0" result="BackgroundImageFix"/>
<feBlend mode="normal" in="SourceGraphic" in2="BackgroundImageFix" result="shape"/>
<feGaussianBlur stdDeviation="2.33602" result="effect1_foregroundBlur"/>
</filter>
<linearGradient id="paint0_linear" x1="108.524" y1="32.7158" x2="116.544" y2="59.6671" gradientUnits="userSpaceOnUse">
<stop stop-color="#0C469A"/>
<stop offset="1" stop-color="#1AAABA"/>
</linearGradient>
<linearGradient id="paint1_linear" x1="609.834" y1="499.528" x2="623.221" y2="474.801" gradientUnits="userSpaceOnUse">
<stop stop-color="#0C469A"/>
<stop offset="1" stop-color="#1AAABA"/>
</linearGradient>
<linearGradient id="paint2_linear" x1="508.602" y1="721.514" x2="521.739" y2="666.5" gradientUnits="userSpaceOnUse">
<stop stop-color="#0C469A"/>
<stop offset="1" stop-color="#1AAABA"/>
</linearGradient>
<linearGradient id="paint3_linear" x1="650.13" y1="183.419" x2="653.177" y2="170.656" gradientUnits="userSpaceOnUse">
<stop stop-color="#1AAABA"/>
<stop offset="1" stop-color="#91E1EA"/>
</linearGradient>
<linearGradient id="paint4_linear" x1="370.856" y1="314.747" x2="373.903" y2="301.984" gradientUnits="userSpaceOnUse">
<stop stop-color="#1AAABA"/>
<stop offset="1" stop-color="#91E1EA"/>
</linearGradient>
<linearGradient id="paint5_linear" x1="3.26646" y1="461.266" x2="16.0285" y2="464.313" gradientUnits="userSpaceOnUse">
<stop stop-color="#1AAABA"/>
<stop offset="1" stop-color="#91E1EA"/>
</linearGradient>
<linearGradient id="paint6_linear" x1="336.857" y1="4.24191" x2="333.095" y2="16.8118" gradientUnits="userSpaceOnUse">
<stop stop-color="#1AAABA"/>
<stop offset="1" stop-color="#91E1EA"/>
</linearGradient>
<linearGradient id="paint7_linear" x1="206.896" y1="700.444" x2="226.771" y2="705.191" gradientUnits="userSpaceOnUse">
<stop stop-color="#1AAABA"/>
<stop offset="1" stop-color="#91E1EA"/>
</linearGradient>
</defs>
</svg>
