<svg width="190" height="190" viewBox="0 0 190 190" fill="none" xmlns="http://www.w3.org/2000/svg">
<circle cx="95" cy="95" r="95" fill="#D7F1F5"/>
<circle opacity="0.1" cx="96.293" cy="102.5" r="44.5" fill="#72949B"/>
<circle cx="95.293" cy="95.5" r="44.5" fill="#E7F1F3"/>
<path d="M98.8653 69.7193C95.2388 63.6393 100.55 57.4278 104.852 54.1314C105.98 53.2674 107.462 53.0836 108.827 53.4793L114.655 55.1699C115.203 55.329 115.72 55.5807 116.184 55.9143L124.095 61.6106C124.396 61.8273 124.672 62.0767 124.918 62.3543L131.063 69.2973C131.312 69.5778 131.528 69.8852 131.707 70.2139L136.533 79.0472C136.764 79.469 136.937 79.9258 137.024 80.3986C138.736 89.7356 132.925 91.4791 127.99 91.18C122.932 90.8734 123.391 108.502 118.793 108.502C112.661 108.502 113.734 103.137 109.595 99.7642C105.456 96.3918 104.537 95.7787 107.449 85.8148C110.362 75.8509 104.077 78.4569 98.8653 69.7193Z" fill="#D5E0E2"/>
<path d="M106.683 52.8574C102.34 55.5655 94.696 62.7293 98.8653 69.7193C104.077 78.4569 110.362 75.8509 107.449 85.8148C104.537 95.7787 105.456 96.3918 109.595 99.7642C113.734 103.137 112.661 108.502 118.793 108.502C123.391 108.502 122.932 90.8734 127.99 91.18C133.049 91.4865 139.027 89.6471 136.881 79.6832" stroke="#72949B" stroke-width="2" stroke-linecap="round" stroke-linejoin="round"/>
<path d="M95.5536 124.318C97.9277 127.396 97.9216 132.234 97.3325 135.95C96.9809 138.168 94.9211 139.583 92.6775 139.49L87.2922 139.269C86.8003 139.248 86.314 139.155 85.8492 138.993L76.4585 135.713C76.1291 135.598 75.8127 135.448 75.5143 135.267L67.6155 130.476C67.2838 130.275 66.9766 130.036 66.7002 129.764L61.4577 124.601C61.2662 124.412 61.0902 124.209 60.9315 123.992L57.6914 119.566C58.3044 119.515 59.7143 118.217 60.4501 113.434C61.3699 107.456 63.976 105.156 68.728 107.456C73.48 109.755 75.7796 98.1051 79.4586 103.624C83.1375 109.142 78.6921 109.449 82.5243 116.807C86.3566 124.164 91.4152 118.953 95.5536 124.318Z" fill="#D5E0E2"/>
<path d="M96.4735 139.647C96.7978 138.643 97.1446 137.237 97.379 135.646M95.5536 124.318C91.4152 118.953 86.3566 124.164 82.5243 116.807C78.6921 109.449 83.1375 109.142 79.4586 103.624C75.7796 98.1051 73.48 109.755 68.728 107.456C63.976 105.156 61.3699 107.456 60.4501 113.434C59.7143 118.217 58.3044 119.515 57.6914 119.566M97.4451 129.075C97.4924 129.371 97.5312 129.669 97.5621 129.97" stroke="#72949B" stroke-width="2" stroke-linecap="round" stroke-linejoin="round"/>
<path d="M50.793 95.5C50.793 94.9087 50.8045 94.3201 50.8274 93.7343M52.6011 82.9026C58.0343 64.461 75.0916 51 95.293 51C119.87 51 139.793 70.9233 139.793 95.5C139.793 120.077 119.87 140 95.293 140C72.5534 140 53.7976 122.944 51.1206 100.927" stroke="#72949B" stroke-width="2" stroke-linecap="round" stroke-linejoin="round"/>
<path d="M75.9323 80.4761C72.0319 80.3261 69.4519 72.0997 77.2485 70.8877C77.5908 70.8345 77.9434 70.7589 78.2765 70.6642C86.1961 68.414 86.0775 76.8722 87.429 80.4761C88.8086 84.1551 84.8231 85.8413 83.1369 82.7755C81.4507 79.7097 79.9175 80.6294 75.9323 80.4761Z" fill="#D5E0E2" stroke="#72949B" stroke-width="2"/>
<path d="M109.965 123.704C109.965 120.791 110.731 117.419 114.104 117.419C116.096 117.419 119.683 118.369 118.089 122.171C116.096 126.923 109.964 126.616 109.965 123.704Z" fill="#D5E0E2" stroke="#72949B" stroke-width="2"/>
<path d="M111.752 52.4443C111.752 64.6096 99.3793 69.5853 95.2929 80.5096C90.8377 69.5853 78.834 64.195 78.834 52.4443C78.834 43.3543 86.2029 35.9854 95.2929 35.9854C104.383 35.9854 111.752 43.3543 111.752 52.4443Z" fill="#D7F1F5" stroke="#36A7BD" stroke-width="2" stroke-linecap="round" stroke-linejoin="round"/>
<path d="M92.6003 58.1676C95.5333 59.861 99.2836 58.8561 100.977 55.9231C101.987 54.1732 102.037 52.1322 101.29 50.4109M98.7324 47.5465C95.7995 45.8532 92.0492 46.8581 90.3558 49.791C89.3735 51.4925 89.2992 53.469 89.9826 55.1594" stroke="#36A7BD" stroke-width="2" stroke-linecap="round" stroke-linejoin="round"/>
<circle cx="103.058" cy="46.7903" r="1.41141" fill="#36A7BD"/>
<circle cx="88.7005" cy="58.8108" r="1.41141" fill="#36A7BD"/>
<path d="M72.4042 117.372C77.8976 87.8009 95.4071 80.392 95.4071 80.392C95.4071 80.392 117.983 87.9315 121.904 120.575M72.4042 117.372C82.4983 122.225 106.53 129.659 121.904 120.575M72.4042 117.372C63.8628 122.904 51.3225 133.969 69.492 133.969M72.4042 117.372C57.1283 95.6753 33.1797 55.1091 59.5921 66.4154M121.904 120.575C136.657 100.677 158.476 61.3488 127.728 63.2124" stroke="#36A7BD" stroke-width="2" stroke-linecap="round" stroke-linejoin="round" stroke-dasharray="1 5"/>
<circle cx="122.627" cy="120.885" r="2.62313" fill="#D7F1F5" stroke="#36A7BD" stroke-width="2" stroke-linecap="round" stroke-linejoin="round"/>
<circle cx="71.5645" cy="116.688" r="2.62313" fill="#D7F1F5" stroke="#36A7BD" stroke-width="2" stroke-linecap="round" stroke-linejoin="round"/>
</svg>
