<svg width="51" height="17" viewBox="0 0 350 120 " fill="none" xmlns="http://www.w3.org/2000/svg" shape-rendering="geometricPrecision">
<path d="M233.5 31.4004L220.5 44.4004C223.3 49.0004 224.9 54.3004 224.9 60.1004C224.9 76.7004 211.5 90.1004 194.9 90.1004C189.2 90.1004 183.8 88.5004 179.2 85.7004L166.2 98.7004C174.2 104.6 184.1 108.2 194.8 108.2C221.3 108.2 242.8 86.7004 242.8 60.2004C243 49.3004 239.5 39.4004 233.5 31.4004Z" fill="#1A2B3B"/>
<path d="M165 60.0004C165 43.4004 178.4 30.0004 195 30.0004C200.7 30.0004 206.1 31.6004 210.7 34.4004L223.7 21.4004C215.7 15.5004 205.8 11.9004 195.1 11.9004C168.6 11.9004 147.1 33.4004 147.1 59.9004C147.1 70.6004 150.6 80.5004 156.6 88.5004L169.6 75.5004C166.6 71.1004 165 65.7004 165 60.0004Z" fill="#1A2B3B"/>
<path d="M20.5 106H3.5C3.2 106 3 105.8 3 105.5V32.5C3 32.2 3.2 32 3.5 32H20.5C20.8 32 21 32.2 21 32.5V105.5C21 105.8 20.8 106 20.5 106Z" fill="#1A2B3B"/>
<path d="M306.3 14.0002C282.7 14.4002 264 34.1002 264 57.7002V105.5C264 105.8 264.2 106 264.5 106H281.5C281.8 106 282 105.8 282 105.5V57.6002C282 43.6002 293.5 31.8002 307.5 32.0002C321.1 32.3002 332 43.3002 332 57.0002V105.5C332 105.8 332.2 106 332.5 106H349.5C349.8 106 350 105.8 350 105.5V57.0002C350 33.0002 330.3 13.6002 306.3 14.0002Z" fill="#1A2B3B"/>
<path d="M12 24C18.6274 24 24 18.6274 24 12C24 5.37258 18.6274 0 12 0C5.37258 0 0 5.37258 0 12C0 18.6274 5.37258 24 12 24Z" fill="#1A2B3B"/>
<path d="M243 24C249.627 24 255 18.6274 255 12C255 5.37258 249.627 0 243 0C236.373 0 231 5.37258 231 12C231 18.6274 236.373 24 243 24Z" fill="#1A2B3B"/>
<path d="M147 120C153.627 120 159 114.627 159 108C159 101.373 153.627 96 147 96C140.373 96 135 101.373 135 108C135 114.627 140.373 120 147 120Z" fill="#1A2B3B"/>
<path d="M90.6001 32H119.5C119.8 32 120 31.8 120 31.5V14.5C120 14.2 119.8 14 119.5 14H90.8001C65.6001 14 44.5001 34 44.0001 59.2C43.6001 85 64.3001 106 90.0001 106H119.5C119.8 106 120 105.8 120 105.5V88.5C120 88.2 119.8 88 119.5 88H90.0001C74.3001 88 61.6001 75 62.0001 59.2C62.4001 44 75.3001 32 90.6001 32Z" fill="#1A2B3B"/>
</svg>
