<svg width="224" height="223" viewBox="0 0 224 223" fill="none" xmlns="http://www.w3.org/2000/svg">
<path fill-rule="evenodd" clip-rule="evenodd" d="M183.114 58.2727L159.044 82.3714C172.514 104.351 169.158 132.699 150.928 150.925C132.697 169.151 104.349 172.501 82.3723 159.027L58.3023 183.084C93.816 209.466 143.3 205.835 174.582 174.553C205.865 143.27 209.496 93.7863 183.114 58.2727ZM55.7568 111.487C55.7507 91.3032 66.6553 72.6923 84.2662 62.8303C101.877 52.9683 123.443 53.3958 140.649 63.9479L164.715 39.8903C129.202 13.4991 79.7117 17.1261 48.4261 48.4127C17.1406 79.6993 13.5152 129.19 39.9076 164.702L63.9734 140.644C58.5833 131.876 55.7384 121.78 55.7568 111.487ZM223.017 22.2893C223.022 31.3105 217.591 39.4463 209.258 42.9021C200.925 46.3578 191.33 44.4528 184.95 38.0756C178.569 31.6983 176.659 22.1051 180.11 13.77C183.561 5.43496 191.694 1.50689e-05 200.715 1.36886e-05C206.63 -0.0065384 212.304 2.33929 216.487 6.5204C220.671 10.7015 223.02 16.3747 223.017 22.2893ZM44.6038 200.686C44.6088 209.707 39.1784 217.843 30.8453 221.298C22.5121 224.754 12.9178 222.849 6.537 216.472C0.156233 210.095 -1.75406 200.501 1.69708 192.166C5.14822 183.831 13.281 178.396 22.3022 178.396C34.6114 178.403 44.5902 188.376 44.6038 200.686Z" fill="#00A2B8"/>
</svg>
